<?xml version="1.0" encoding="utf-8"?>
<!-- Generator: Adobe Illustrator 18.0.0, SVG Export Plug-In . SVG Version: 6.00 Build 0)  -->
<!DOCTYPE svg PUBLIC "-//W3C//DTD SVG 1.1//EN" "http://www.w3.org/Graphics/SVG/1.1/DTD/svg11.dtd">
<svg version="1.1" id="Layer_1" xmlns="http://www.w3.org/2000/svg" xmlns:xlink="http://www.w3.org/1999/xlink" x="0px" y="0px"
	 viewBox="0 0 359 387" enable-background="new 0 0 359 387" xml:space="preserve">
<g>
	<g>
		<g>
			<path fill="#D6332B" d="M277.2,207.1c0,1.8-1.5,3.3-3.3,3.3h-11.4c-1.8,0-3.3-1.5-3.3-3.3v-2.8c0-1.8,1.5-3.3,3.3-3.3h11.4
				c1.8,0,3.3,1.5,3.3,3.3V207.1z"/>
			<g>
				<path fill="#2C2933" d="M177.2,231.6h-18.7l0,0l0,0c-10.8,0-19.5,15-19.5,33.4c0,2.4,0.1,4.7,0.4,7c1.8,14.7,9.4,25.8,18.4,26.4
					l0,0h19.4c9.4,0,17.2-11.3,19.1-26.4c0.3-2.3,0.4-4.6,0.4-7C196.7,246.6,188,231.6,177.2,231.6z"/>
				<path fill="#3A3842" d="M324.6,231.6h-18.7l0,0l0,0c-10.8,0-19.5,15-19.5,33.4c0,2.4,0.1,4.7,0.4,7c1.8,14.7,9.4,25.8,18.4,26.4
					l0,0h19.4c9.4,0,17.2-11.3,19.1-26.4c0.3-2.3,0.4-4.6,0.4-7C344.1,246.6,335.4,231.6,324.6,231.6z"/>
				<polygon fill="#4B4554" points="62.6,195.7 23.6,195.7 13.4,192.1 79.4,192.1 				"/>
				<path fill="#433144" d="M17.9,267.4c0,1.4,1.1,2.5,2.5,2.5h95.7c1.4,0,2.5-1.1,2.5-2.5v-40.8c0-1.4-1.1-2.5-2.5-2.5H20.4
					c-1.4,0-2.5,1.1-2.5,2.5V267.4z"/>
				<path fill="#F9543E" d="M118.1,174.9c-15.3,0-16.3-2.5-25.4,0.8c-14.3,5.3-46.7,29.4-46.7,29.4L35.4,222l108.5-4.4L118.1,174.9z
					"/>
				<path fill="#F9543E" d="M89,177.7c23.6-14.6,111.9-11.1,130.4-2.8l0,0c14.9,4.1,57.1,41.6,57.1,41.6l-184.9-7
					c0-1,0.1-2.7,0.4-4.7C82.4,200.1,70.7,189,89,177.7z"/>
				<path fill="#7AB1AD" d="M109.7,175.6c5.2-0.7,11.2-0.7,12.4-0.7c19.2,0,84.4,0,93.3,0c13,0,60.1,41.6,60.1,41.6l-194.2-4.4
					C50.4,212.1,81.6,180.7,109.7,175.6z"/>
				<path opacity="0.4" fill="#8C4C57" d="M209.2,174.9c2.4,0,5.3,0,6.3,0c13,0,60.1,41.6,60.1,41.6l-3.9-0.1
					c-4.8-2.7-9.6-4.9-9.6-4.9C258.2,207.3,224.3,174.9,209.2,174.9z"/>
				<path opacity="0.4" fill="#8C4C57" d="M109.7,175.6c5.2-0.7,11.2-0.7,12.4-0.7c12.4,0,64.8,0,88.1,0c-1.2,0-7.2,0-12.4,0.7
					c-28.1,5.1-59.4,36.5-28.4,36.6l104.4,2.8c1.1,1,1.8,1.6,1.8,1.6l-194.2-4.4C50.4,212.1,81.6,180.7,109.7,175.6z"/>
				<path fill="none" stroke="#647F7F" stroke-width="5.8808" stroke-linecap="square" stroke-miterlimit="10" d="M159.5,182.8
					c0,0,9.7,22.1,9.7,25.7"/>
				<g>
					
						<linearGradient id="SVGID_1_" gradientUnits="userSpaceOnUse" x1="7137.9722" y1="145.621" x2="7145.3066" y2="213.5616" gradientTransform="matrix(-1 0 0 1 7347.0825 0)">
						<stop  offset="0.2102" style="stop-color:#FFFFFF"/>
						<stop  offset="1" style="stop-color:#231F20"/>
					</linearGradient>
					<path fill="url(#SVGID_1_)" d="M266.3,210c-0.4-0.2-0.8-0.4-1.2-0.7c-8.5-5.1-32.1-17-66.3-17c-1.9,0-3.8,0-5.7,0.1l-0.9,0
						c-11.6,0.4-20.1,0.8-26.6,0.8c-13.6,0-18.4-1.3-22.3-6.1c-1.6-2-1.5-3.5-1.3-5.7c0.1-1.6,0.3-3.3-0.3-5.4h73.7
						C222,176,240.9,188.6,266.3,210z"/>
				</g>
				<path opacity="0.3" fill="#2C2933" d="M109.7,175.6c5.2-0.7,11.2-0.7,12.4-0.7c2.9,0,6.8,0,11.5,0c1.4,0.8,2.7,2.2,3.6,4.4
					c2.5,6.5,6.3,29.8,9.6,33.4v1l0,0l-27.2-0.6l-42-2.7c0,0-4.8-0.4-8.5-2.4C64.4,199.1,88,179.5,109.7,175.6z"/>
				<path opacity="0.7" fill="#7AB1AD" d="M90.2,182.8c0,0,42.4,0,55,0c12.6,0,3.2,6.6,3.2,6.6l-10.5,10.5c0,0-3,2.6-9.3,2.6
					c-6.3,0-57.5,0-57.5,0C71.8,196.2,78.5,189.2,90.2,182.8z"/>
				<g opacity="0.8">
					
						<linearGradient id="SVGID_2_" gradientUnits="userSpaceOnUse" x1="7228.7446" y1="149.7252" x2="7239.812" y2="198.018" gradientTransform="matrix(-1 0 0 1 7347.0825 0)">
						<stop  offset="0" style="stop-color:#FFFFFF"/>
						<stop  offset="1" style="stop-color:#231F20"/>
					</linearGradient>
					<path fill="url(#SVGID_2_)" d="M139.4,198.7c-3.2-2.5-10.1-4.3-17.6-4.3l-0.4,0c-1.3,0-2.7,0-4,0c-3.5,0-7.1,0-10.6-0.1
						c-3.4,0-7-0.1-10.3-0.1c-11.5,0-17.6,0.3-20.6,1.3c0-0.2-0.1-0.5-0.2-0.7c7-7.2,20.4-15.7,34.2-18.2c4.1-0.5,8.8-0.6,11.2-0.7
						c8.8,0.1,13,3.6,15.5,13c0.6,2.3,1.4,4.8,2.1,7.5C139,197.2,139.2,197.9,139.4,198.7z"/>
				</g>
				<g>
					<path fill="#4E4C59" d="M217,177c2.1,0,7.8,1.6,23.2,12.7c9,6.5,17.4,12,24.5,17.8c-2.6,0.3-55.6,0.4-73-0.2
						c-11-0.4-25-0.6-25-0.6l-9.8-0.4c-4.8,0-6.8-6.9-9.3-14.2c-0.4-1.1-0.7-2.2-1.1-3.2c-0.8-2.4-2.4-6.8-1.1-9.3
						c0.1-0.1,0.9-1.4,6.7-2.2c3.7-0.5,7.7-0.5,10.1-0.5c0.3,0,0.6,0,0.8,0h51.5H217z M215.5,174.9c-5.4,0-31.2,0-55.1,0
						c-3.9,0-17.3-0.2-19.4,3.7c-1.7,3.2-0.2,7.8,1,11c3.1,8.7,6.3,20.8,13.4,20.8c0,0,0,0,0,0l12.4,1.9c10.6,0,52.7-0.2,79-0.2
						c13.8,0,23.2-0.5,21.3-2.1C253.7,198,224.8,174.9,215.5,174.9L215.5,174.9z"/>
				</g>
				<path fill="#D6332B" d="M167.8,210.3c11.9,1.5,33.6-0.6,62,0.4c44.3,1.6,18.6-0.8,49.1-0.8c30.5,0,60.1,9.5,66.4,20.6l3.7,8.9
					c1.2,3.3,0.4,8.6,0.4,12.4l-7,16.1c0,3.8,0.9,6.1-1.9,6.1c0,0,1.4,1.2-2.1,1.2c-3.5,0-4.4-0.3-4.4-7.4c0-0.2,0-0.4,0-0.6
					c0-0.1,0-0.2,0-0.3c0-20.7-10-37.6-22.3-37.6c-12.3,0-22.3,16.9-22.3,37.6c0,0.1,0,0.2,0,0.3c0,0.2,0,0.4,0,0.6
					c0,5.8-0.6,7.4-3.9,7.4c-18.2,0-97.7,0-102.8,0c-5.8,0-5.4-1.9-5.4-5.1c0-1,0-2,0-2.8c0-12.8-3.8-24.1-9.5-31V210.3z"/>
				<path fill="#433144" d="M56.8,280.9c0,1.2,1,2.3,2.3,2.3h251.2c1.2,0,2.3-1,2.3-2.3v-49.5c0-1.2-1-2.3-2.3-2.3H59.1
					c-1.2,0-2.3,1-2.3,2.3V280.9z"/>
				<path fill="#2C2933" d="M42.4,298.4h19.4c9.4,0,17.2-11.3,19.1-26.4c0.3-2.3,0.4-4.6,0.4-7c0-18.4-8.7-33.4-19.5-33.4H43.1
					l-1.7,34.3L42.4,298.4L42.4,298.4z"/>
				<path fill="#2C2933" d="M188.9,298.4h19.4c9.4,0,17.2-11.3,19.1-26.4c0.3-2.3,0.4-4.6,0.4-7c0-18.4-8.7-33.4-19.5-33.4h-18.7
					l-1.7,34.3L188.9,298.4L188.9,298.4z"/>
				<g>
					<g enable-background="new    ">
						<g>
							<path fill="#2C2933" d="M297,274.1c-0.2-1.2-0.2-2.5-0.2-3.9c0-10.2,4.8-18.4,10.8-18.4L297,274.1z"/>
							<path fill="#2C2933" d="M307.6,251.8c5.9,0,10.8,8.2,10.8,18.4c0,1.3-0.1,2.6-0.2,3.9L307.6,251.8z"/>
						</g>
					</g>
				</g>
				<path fill="#EF553C" d="M219.7,228.8l2.3,0v47.5h105h9.6c1.8,0,7.8-3.1,7.8-6.9l6.2-15.6c0-3.8-0.4-9.6-1.6-12.9l-4.4-11.3
					c-0.5-1.4-10.1-2.7-10.8-3.8h-9.3h-75.6h-29.3V228.8z"/>
				<path fill="#EF553C" d="M187.4,211c31.1,5.8,49,17,49,17c5.1,1,22.8,10.9,22.8,10.9l60.3-0.8l8.9-2.8
					C297.1,211,265.6,211,243.3,211H187.4z"/>
				<path fill="#D6332B" d="M318.3,224.6c-0.7,0.6-5.6,0.4-5.6,0.4s2,1.1,3.9,2.2c3.7,2.3,6.9,8-4.1,8c-10.9,0,8.1,4.8,8.1,4.8
					l5.4,0.1c0,0,14.2-11.9,13.1-12.5c-1.2-0.6-11.1-5.2-10.7-5.6C332.6,218.2,318.3,224.6,318.3,224.6z"/>
				<path fill="#F9543E" d="M259.3,238.9c0,0-29.2-28.6-91.5-28.6l-98.5,1.3l103.5,9.4l69.9,17.9H259.3z"/>
				<path fill="#D6332B" d="M38.4,204.6c-14.7,0-20.6,1.8-20.6,23.4v11.8c0,3.8,0,3,0,6.8v7.6h5c3.2-14.5,11.5-24.9,21.2-24.9
					c12.4,0,22.6,17.1,22.6,38c0,0.8,0,1.7,0,2.8c0,3.3-0.4,5.1,5.4,5.1c5.1,0,74.2,0,92.4,0c3.3,0,3.9-1.6,3.9-7.4
					c0-0.2,0-0.4,0-0.6c0-0.1,0-0.2,0-0.3c0-20.7,10-37.6,22.3-37.6c12.3,0,24.4,16.9,24.4,37.6c0,0.1,3.1,0.2,3.1,0.3
					c0,0.2-3.1,0.4-3.1,0.6c0,7,8.6,2.2,12.2,2.2c3.5,0-6.7,5.2-6.7,5.2c2.7,0,8.5-3.5,8.5-7.3l-2.1-15.6c0-3.8-3.6-17.6-9.3-18.1
					l17,2c-6.3-11.1-46.3-21.1-76.8-21.1c-30.5,0-25.5-0.8-69.8-2.3c-44.3-1.6-41.2-8.1-41.2-8.1H38.4z"/>
				<path opacity="0.2" fill="#2C2933" d="M35,204.7c-7.4,0.2-12.2,1.5-14.8,6.9c2.5-4.9,20.6-3.9,22.8-3.2l-3.4-1.9L35,204.7z"/>
				<polygon fill="#2C2933" points="44.6,224.1 55.8,224.1 60.3,226.9 58.5,229.2 47.5,228.2 				"/>
				
					<linearGradient id="SVGID_3_" gradientUnits="userSpaceOnUse" x1="-469.9486" y1="238.0763" x2="-441.2838" y2="263.2875" gradientTransform="matrix(1 0 0 1 507.6596 0)">
					<stop  offset="0" style="stop-color:#F9543E"/>
					<stop  offset="0.2717" style="stop-color:#F14D3A"/>
					<stop  offset="0.682" style="stop-color:#DD392F"/>
					<stop  offset="0.7901" style="stop-color:#D6332B"/>
				</linearGradient>
				<path fill="url(#SVGID_3_)" d="M43.9,229.3c9.3,0,17.3,9.6,20.8,23.2c1.7-2.6,6.8-2.9,7.7-0.3c1.3,4.1,1.8-3,1.8-3
					s1.1-18.1-22.2-24.3c-23.3-6.3-31.1,20.6-31.1,29.3h1.9C25.9,239.7,34.2,229.3,43.9,229.3z"/>
				<defs>
					<filter id="Adobe_OpacityMaskFilter" filterUnits="userSpaceOnUse" x="61" y="229.1" width="114.8" height="45">
						<feColorMatrix  type="matrix" values="1 0 0 0 0  0 1 0 0 0  0 0 1 0 0  0 0 0 1 0"/>
					</filter>
				</defs>
				<mask maskUnits="userSpaceOnUse" x="61" y="229.1" width="114.8" height="45" id="SVGID_4_">
					<g filter="url(#Adobe_OpacityMaskFilter)">
						
							<linearGradient id="SVGID_5_" gradientUnits="userSpaceOnUse" x1="7222.6445" y1="222.0736" x2="7224.4893" y2="263.9832" gradientTransform="matrix(-1 0 0 1 7347.0825 0)">
							<stop  offset="0" style="stop-color:#FFFFFF"/>
							<stop  offset="7.416099e-02" style="stop-color:#F8F7F7"/>
							<stop  offset="0.1865" style="stop-color:#E3E3E3"/>
							<stop  offset="0.3231" style="stop-color:#C1C0C1"/>
							<stop  offset="0.4788" style="stop-color:#939191"/>
							<stop  offset="0.6481" style="stop-color:#585555"/>
							<stop  offset="0.7843" style="stop-color:#231F20"/>
						</linearGradient>
						<rect x="35.5" y="221.9" fill="url(#SVGID_5_)" width="175.5" height="54.7"/>
					</g>
				</mask>
				<path opacity="0.3" mask="url(#SVGID_4_)" fill="#8C4C57" d="M172.7,238c-24.3-2.4-110.9-8.5-111.7-8.5c0,0,5.8-3.3,11.7,10.4
					c5.9,13.7,1,24,12,29.6c11,5.7,76.4,4.5,76.4,4.5l4.3-2.8l2.3-19.4l2.2-6.7l5.2-6C175.1,239.1,177.9,238.5,172.7,238z"/>
				<path fill="#F9543E" d="M169.6,237.4c5.3-9,12.8-13.9,20.9-13.9c8,0,15.9,5,21.8,13.7c5.5,8.3,8.6,18.9,8.6,29.9h-6l0,0
					c0-20.7-12.1-37.6-24.4-37.6c-12.3,0-22.3,16.9-22.3,37.6h-6C162.2,255.9,164.8,245.4,169.6,237.4z"/>
				<path fill="#F97830" d="M153.1,230.6c0,1.2-1,2.3-2.3,2.3h-4.9c-1.2,0-2.3-1-2.3-2.3v-2.3c0-1.2,1-2.3,2.3-2.3h4.9
					c1.2,0,2.3,1,2.3,2.3V230.6z"/>
				<path fill="#2C2933" d="M88.7,220.4c-0.4,1.6-2.8,2.7-5.2,2.6l-4.7-0.4c-2.4-0.2-4.1-1.6-3.6-3.2s2.8-2.7,5.2-2.6l4.7,0.4
					C87.5,217.4,89.2,218.8,88.7,220.4z"/>
				<g>
					<g>
						<g enable-background="new    ">
							<g>
								<path fill="#4B4554" d="M189.5,231.6c10.8,0,19.5,15,19.5,33.4c0,2.4-0.1,4.7-0.4,7c-1.9,15.1-9.7,26.4-19.1,26.4
									c-9.4,0-17.2-11.3-19.1-26.4c-0.3-2.3-0.4-4.6-0.4-7C170,246.6,178.7,231.6,189.5,231.6L189.5,231.6z"/>
							</g>
						</g>
					</g>
					<g>
						<g enable-background="new    ">
							<g>
								<path fill="#8C98A4" stroke="#DFE7E8" stroke-width="4.9007" stroke-miterlimit="10" d="M189.3,240.8
									c7.8,0,14.2,10.8,14.2,24.2c0,1.7-0.1,3.4-0.3,5.1c-1.4,10.9-7,19.1-13.9,19.1c-6.8,0-12.5-8.2-13.8-19.1
									c-0.2-1.6-0.3-3.3-0.3-5.1C175.1,251.6,181.5,240.8,189.3,240.8L189.3,240.8z"/>
							</g>
						</g>
					</g>
				</g>
				<g>
					<g>
						<g enable-background="new    ">
							<g>
								<path fill="#4B4554" d="M43.1,231.6c10.8,0,19.5,15,19.5,33.4c0,2.4-0.1,4.7-0.4,7c-1.9,15.1-9.7,26.4-19.1,26.4
									c-9.4,0-17.2-11.3-19.1-26.4c-0.3-2.3-0.4-4.6-0.4-7C23.6,246.6,32.3,231.6,43.1,231.6L43.1,231.6z"/>
							</g>
						</g>
					</g>
				</g>
				<polygon fill="#EF553C" points="214.8,288.1 214.8,267 350.5,253.9 345.9,288.1 				"/>
				<polygon fill="#3A3842" points="347.3,288.1 337.7,288.1 302.3,294.7 292.7,288.1 242.3,288.1 242.3,283.6 347.3,283.6 				"/>
				<path fill="#2C2933" stroke="#C82E27" stroke-width="1.9603" stroke-miterlimit="10" d="M341,253.3c0.8-2.7-1-5-3.8-5h-92.7
					c-2.8,0-4.5,2.2-3.8,5l5.2,18.1c0.8,2.7,3.8,5,6.6,5h77c2.8,0,5.8-2.2,6.5-5L341,253.3z"/>
				<path fill="#EADCDA" d="M255.5,240.1c-8.6-4.1-33.8-19.3-41.4-14.8c-7.6,4.5,1.7,12.7,11.4,14.3
					C235.1,241.2,255.5,240.1,255.5,240.1z"/>
				<path opacity="0.2" fill="none" stroke="#37333F" stroke-width="1.9603" stroke-linecap="square" stroke-miterlimit="10" d="
					M143.3,210.6c0,0-2.9,1.8-4.1,4.2c-1.2,2.4-3.8,12.3-4.6,20.2v36.1"/>
				<g>
					<path fill="#2C2933" d="M55.5,224.1c15,0,27.2,20.1,27.7,45.1c-7.6-1.5-8.4-5-9.5-9.1c-0.3-2-1-5.7-1-5.7c-0.5-3.1-1-5-1.8-6.4
						c-3.9-11.8-10.8-20.4-19-23C53.6,224.3,53.8,224.1,55.5,224.1z"/>
				</g>
				<path fill="#EF553C" d="M353.3,283.3c0-1.5-1.2-2.8-2.8-2.8H227c-1.5,0-2.8,1.2-2.8,2.8v2c0,1.5,1.2,2.8,2.8,2.8h31.5
					c1.5,0,3.8-0.7,5-1.6l0.5-0.3c1.2-0.9,3.5-1.6,5-1.6h62.4c1.5,0,3.3,0.8,4,1.8c0.7,1,2.4,1.8,4,1.8h11.2c1.5,0,2.8-1.2,2.8-2.8
					V283.3z"/>
				<path fill="#F9543E" d="M132.6,210.7c-11-0.2-70,1.9-62.3-10.8c5.1-8.5-7.6,7.1-7.6,7.1l6.6,4.4l7,0.8l51.7,2.2l2.8-2.2
					L132.6,210.7z"/>
				<path fill="#F9543E" d="M120.9,171.8c1.6-0.1,3.3-0.3,5-0.5c0.4-1.5,2-2.8,3.8-1.7c0.6,0.4,1.2,0.7,1.9,1.1
					c3.2-0.3,5.6-0.4,6.4,0.3c0.4,0.3,0.6,1.2,0.7,2.2c3.5-3.3,8.9-4,13.6-4c3.3,0,11.5,5.7,8.1,5.7c-3.9,0-17.3-0.2-19.4,3.7
					c-1.7,3.2-0.2,7.8,1,11c3.1,8.7,6.4,20.8,13.4,20.8c3.3,0-10.5,4.2-11.3,1c-2.5-9.7-4.7-16.6-6.3-22.7
					c-2.9-10.7-8-13.9-16.8-13.9C107.8,174.9,113.9,172.3,120.9,171.8z"/>
				<path fill="#EF553C" d="M45.3,208.3c-6.7-3.6-11.5-6.8-14.3-10.8l-7.9-1.7l7.8,9.7c0,0,1.1,0,4.8,0.5c2.4,0.4,7.2,2.3,7.2,2.3
					H45.3z"/>
				<path fill="#F9543E" d="M75,264c7.1,8.7,29.3,7,39.7,7c10.4,0,36.5,0,41.2,0c4.7,0,6.2-0.3,6.3-4l6-1.4c0,0.5,0,0.9,0,1.4
					c0,0.1,0,0.2,0,0.3c0,0.2,0,0.4,0,0.6c0,5.8-0.6,7.4-3.9,7.4c-18.2,0-87.4,0-92.4,0c-5.8,0-5.4-1.9-5.4-5.1c0-1,0-2,0-2.8
					C70.6,262.6,75,264,75,264z"/>
				<polygon fill="#2C2933" points="320.8,240.1 260.6,240.1 250.5,232.1 320,232.1 				"/>
				<path fill="#D6332B" d="M43,208.3c-6.7-3.6-11.5-6.8-14.3-10.8l-7.9-1.7l7.8,9.7c0,0,1.1,0,4.8,0.5
					C38.2,206.6,43,208.3,43,208.3z"/>
				<path fill="#EF553C" d="M9.2,195c0.7,2.8,3.6,5,6.5,5h9.6c2.8,0,7.2-1.2,9.6-2.7l3.6-2.1c2.4-1.5,2.1-3-0.7-3.5l-25.5-3.9
					c-0.4-0.1-0.8-0.1-1.2,0h-3v2.8l3.8,1.5L9.2,195z"/>
				<path fill="#F9543E" d="M34.1,191.7c3,0.5,3.3,2.1,0.7,3.7l-2.9,1.8c-2.6,1.6-7.2,2.9-10.3,2.9h-8.9c-3,0-6.2-2.4-6.9-5.4
					l-0.6-2.2c-0.8-3,1.1-5,4.1-4.5L34.1,191.7z"/>
				<path fill="none" stroke="#45424F" stroke-width="4.9007" stroke-miterlimit="10" d="M85.8,186.5c0,0-7.7,17.7-7.7,20.6"/>
				<g>
					<path fill="#45424F" d="M121.2,177.1c7.1,0.1,11.7,2.1,14.4,12.2c0.6,2.3,1.4,4.9,2.1,7.5c1,3.4,2.1,7.2,3.2,11.5l-8.4,0.1
						c-0.5,0-1,0-1.6,0c-1.2,0-2.6,0-4.2,0c-2.2,0-4.7,0-7.5,0c-12.5,0-22.2-0.4-29.8-1.1c-14.6-1.5-17.2-4.1-17.6-4.9
						c-0.1-0.2-0.3-0.5,0.2-1.4c0.1-0.1,0.2-0.3,0.2-0.4c2.7-4.4,8.2-9.4,15-13.7c7.4-4.6,15.4-7.9,22.7-9.2
						C114.2,177.2,118.8,177.1,121.2,177.1L121.2,177.1z M121.2,174.9c-2.2,0-7.1,0.1-11.4,0.7c-16.2,2.9-33.4,14.6-39.2,24
						c-0.1,0.1-0.2,0.3-0.2,0.4c-5.9,9.9,28.3,10.8,49,10.8c4.9,0,9-0.1,11.7-0.1c0.6,0,1.1,0,1.6,0l11.2-0.1
						c-2.4-9.2-4.5-15.9-6.1-21.8C134.9,178.2,129.8,175,121.2,174.9L121.2,174.9z"/>
				</g>
				<path fill="#C82E27" d="M330.9,271.4l4.9-18.1c0.8-2.7-1-5-3.8-5h5.2c2.8,0,4.6,2.2,3.8,5l-4.9,18.1c-0.8,2.7-3.7,5-6.5,5h-5.2
					C327.2,276.4,330.1,274.2,330.9,271.4z"/>
				<path fill="#4E4C59" d="M173.1,208.5c3.8,0.9,1.6,1.6,9.3,2.3c7.7,0.7,31,1.4,46.2,1.4c15.2,0,41.8-0.2,39.3-2.3h-19l-55.6-1.4
					H173.1z"/>
				<path fill="#F2E1DD" d="M255.5,240.1c-7.8-3.7-29-16.4-38.7-15.5c11,3.5,10.3,11.2,22.9,13.5
					C249.3,239.9,255.5,240.1,255.5,240.1z"/>
				<path opacity="0.7" fill="#F4EEED" d="M219.7,228c-2.7-2.1-2.9-2.1-5.5-2.7c0,0-0.1,0-0.1,0.1c-6,3.6-1.4,9.5,5.7,12.6
					C230.7,241.7,222.9,230.4,219.7,228z"/>
				<path fill="#F2E1DD" d="M349.3,240.3c-0.1-0.3-0.2-0.6-0.3-0.9l-3.7-8.9c-0.8-1.4-2.1-2.9-3.6-4.2c-7,3.5-12.6,11.1-15.7,13.8
					C326,240.1,339.6,240.8,349.3,240.3z"/>
				<path opacity="0.7" fill="#FFFFFF" d="M249.6,240.5c-3.8-4.3-16.2-11-26.2-15.1c-1.5-0.4-2.9-0.7-4.2-0.8
					c-1.3-0.1,14.2,3.1,19.9,15.8C242.8,240.5,246,240.5,249.6,240.5z"/>
				<path fill="#D6332B" d="M217.9,248.8c4.3,13.9,3.3,25.3,3.1,37.6l8.4,1.3c0,0,3.5-23.8-5.5-46.4L217.9,248.8z"/>
				<path fill="#D6332B" d="M214.6,288.1h18.9c1.4,0,2.6-1.2,2.6-2.6v-2.3c0-1.4-1.2-2.6-2.6-2.6h-18.9V288.1z"/>
				<g>
					<path fill="#FFFDF4" d="M265.1,266.5c0,0.9,0.7,1.6,1.6,1.6h35.8c0.9,0,1.6-0.7,1.6-1.6V257c0-0.9-0.7-1.6-1.6-1.6h-35.8
						c-0.9,0-1.6,0.7-1.6,1.6V266.5z"/>
					<path fill="#8CBFB1" d="M266.7,268h4.6v-12.6h-4.6c-0.9,0-1.6,0.7-1.6,1.6v9.5C265.1,267.3,265.8,268,266.7,268z"/>
				</g>
				<polygon opacity="0.3" fill="#2C2933" points="253.5,257.2 322.1,257.2 324.2,250.1 253.5,250.1 				"/>
				<path opacity="0.2" fill="none" stroke="#37333F" stroke-width="1.9603" stroke-linecap="square" stroke-miterlimit="10" d="
					M70.6,201.5c-1.7,4-6.7,16.8-6.7,28.4"/>
				<path fill="#F9543E" stroke="#D6332B" stroke-width="8.8213" stroke-linejoin="round" stroke-miterlimit="10" d="M89.5,218.4
					l-14.9-1L89.5,218.4z"/>
				<path fill="#CAD5D7" d="M193.4,241.9c5.8,3,10,12.2,10,23.2c0,1.7-0.1,3.4-0.3,5.1c-1.1,8.6-4.8,15.5-9.7,18.1
					c-4.9-2.5-8.6-9.5-9.7-18.1c-0.2-1.6-0.3-3.3-0.3-5.1C183.4,254.1,187.6,244.9,193.4,241.9z"/>
				<g>
					<path fill="#2C2933" d="M160.9,267.4c0,0-4.4,0-6.9,0c-2.5,0-4.6-3-4.6-6.7v-4.5c0-3.7,3-6.7,6.7-6.7h7.1c0,0-2.3,4.8-2.3,12.5
						C160.9,266.5,160.9,267.4,160.9,267.4z"/>
					<path fill="#F9543E" stroke="#D6332B" stroke-width="5.8808" stroke-linejoin="round" stroke-miterlimit="10" d="M163,255
						h-15.9H163z"/>
					<path fill="#F9543E" stroke="#D6332B" stroke-width="5.8808" stroke-linejoin="round" stroke-miterlimit="10" d="M161.4,262.2
						h-14.4H161.4z"/>
				</g>
			</g>
			<path fill="#3A3842" d="M196.5,247.2c0.5,0.3,5.3,5.5,5.3,17.3c0,11.8-4.8,18.6-5.4,18.9c-4,0-7.8-7.4-8.6-14.1
				c-0.2-1.3-0.2-2.6-0.2-4C187.7,256.7,191.5,247.2,196.5,247.2z"/>
			<line fill="none" stroke="#CAD5D7" stroke-width="3.9206" stroke-miterlimit="10" x1="183.4" y1="265" x2="203.5" y2="265"/>
			<polyline fill="none" stroke="#CAD5D7" stroke-width="3.9206" stroke-miterlimit="10" points="196.9,283.5 197.9,265 
				196.9,246.5 			"/>
			<polyline fill="none" stroke="#CAD5D7" stroke-width="3.9206" stroke-miterlimit="10" points="189.4,252.9 197.9,265 
				189.4,277.6 			"/>
			<polyline fill="none" stroke="#CAD5D7" stroke-width="3.9206" stroke-miterlimit="10" points="202.5,274 197.9,265 201.9,253.9 
							"/>
			<g>
				<g enable-background="new    ">
					<g>
						<path fill="#CAD5D7" d="M197.1,258.4c2.1,0,3.9,3,3.9,6.6c0,0.5,0,0.9-0.1,1.4c-0.4,3-1.9,5.2-3.8,5.2c-1.9,0-3.4-2.2-3.8-5.2
							c-0.1-0.4-0.1-0.9-0.1-1.4C193.2,261.4,194.9,258.4,197.1,258.4L197.1,258.4z"/>
					</g>
				</g>
			</g>
			<g>
				<g>
					<g enable-background="new    ">
						<g>
							<path fill="#8C98A4" stroke="#DFE7E8" stroke-width="4.9007" stroke-miterlimit="10" d="M42.7,240.6
								c7.8,0,14.2,10.8,14.2,24.2c0,1.7-0.1,3.4-0.3,5.1c-1.4,10.9-7,19.1-13.9,19.1c-6.8,0-12.5-8.2-13.8-19.1
								c-0.2-1.6-0.3-3.3-0.3-5.1C28.6,251.4,34.9,240.6,42.7,240.6L42.7,240.6z"/>
						</g>
					</g>
				</g>
				<path fill="#CAD5D7" d="M46.9,241.6c5.8,3,10,12.2,10,23.2c0,1.7-0.1,3.4-0.3,5.1c-1.1,8.6-4.8,15.5-9.7,18.1
					c-4.9-2.5-8.6-9.5-9.7-18.1c-0.2-1.6-0.3-3.3-0.3-5.1C36.8,253.9,41,244.6,46.9,241.6z"/>
				<path fill="#3A3842" d="M50,246.9c0.5,0.3,5.3,5.5,5.3,17.3c0,11.8-4.8,18.6-5.4,18.9c-4,0-7.8-7.4-8.6-14.1
					c-0.2-1.3-0.2-2.6-0.2-4C41.1,256.5,44.9,246.9,50,246.9z"/>
				<line fill="none" stroke="#CAD5D7" stroke-width="3.9206" stroke-miterlimit="10" x1="36.8" y1="264.8" x2="56.9" y2="264.8"/>
				<polyline fill="none" stroke="#CAD5D7" stroke-width="3.9206" stroke-miterlimit="10" points="50.3,283.3 51.3,264.8 
					50.3,246.3 				"/>
				<polyline fill="none" stroke="#CAD5D7" stroke-width="3.9206" stroke-miterlimit="10" points="42.8,252.7 51.3,264.8 
					42.8,277.4 				"/>
				<polyline fill="none" stroke="#CAD5D7" stroke-width="3.9206" stroke-miterlimit="10" points="55.9,273.8 51.3,264.8 
					55.3,253.7 				"/>
				<g>
					<g enable-background="new    ">
						<g>
							<path fill="#CAD5D7" d="M50.5,258.2c2.1,0,3.9,3,3.9,6.6c0,0.5,0,0.9-0.1,1.4c-0.4,3-1.9,5.2-3.8,5.2c-1.9,0-3.4-2.2-3.8-5.2
								c-0.1-0.4-0.1-0.9-0.1-1.4C46.6,261.1,48.4,258.2,50.5,258.2L50.5,258.2z"/>
						</g>
					</g>
				</g>
				<g>
					<path fill="#DFEBED" d="M194,269.4c-0.3,0-1.3-1-1.6-3.3c0-0.4-0.1-0.7-0.1-1.1c0-2.9,1.3-4.4,1.7-4.4c0.4,0,1.7,1.6,1.7,4.4
						c0,0.4,0,0.8-0.1,1.1C195.4,268.4,194.3,269.4,194,269.4z"/>
					<path fill="#DFEBED" d="M47.5,269.2c-0.3,0-1.3-1-1.6-3.3c0-0.4-0.1-0.7-0.1-1.1c0-2.9,1.3-4.4,1.7-4.4c0.4,0,1.7,1.6,1.7,4.4
						c0,0.4,0,0.8-0.1,1.1C48.8,268.2,47.8,269.2,47.5,269.2z"/>
				</g>
			</g>
			<path fill="#933838" d="M138.1,212.2c-0.5,1.1-2.6,2.5-7.6,3.5c-4.9,1-14.9-1.3-14.9-1.3s5-2.9,18.5-2.9L138.1,212.2z"/>
			<path fill="#D6332B" d="M137.1,208.5l-7.8-2.2l-1.4,1.6c0,0,5,4.3,6,5.4C136,215.4,141.7,210.1,137.1,208.5z"/>
			<path fill="#C12F2F" d="M130.1,208.2c0,0,1.8,1.6,3.3,2.1c1.5,0.5,3.6-1.2,2.8-2.1l1,0.3c4.5,1.6-1.1,6.9-3.1,4.7
				c-0.9-0.9-4.4-3.9-5.6-5H130.1z"/>
			<path fill="#C12F2F" d="M110.1,205.5c0,1.8,1.5,3.3,3.3,3.3h16.5c1.8,0,3.3-1.5,3.3-3.3v-2.8c0-1.8-1.5-3.3-3.3-3.3h-16.5
				c-1.8,0-3.3,1.5-3.3,3.3V205.5z"/>
			<path fill="#F9543E" d="M116.7,201.8c0,0.7,0.7,1.3,1.7,1.3h12.2c0.9,0,1.7-0.6,1.7-1.3c0-0.7-0.7-1.3-1.7-1.3h-12.2
				C117.4,200.5,116.7,201.1,116.7,201.8z"/>
		</g>
	</g>
	<path fill="#FFFFFF" d="M346.7,240.4l-8.1-12.3c-2,1.4-3.9,3-5.6,4.7l7.1,7.7C342.4,240.5,344.6,240.5,346.7,240.4z"/>
</g>
<path opacity="0.1" fill="#F5F3FF" enable-background="new    " d="M-108.7,269.8c9.2,5.3,9.3,13.9,0.1,19.3l-90.6,52.7
	c-9.1,5.3-24,5.3-33.2,0l-119.1-68.8c-9.2-5.3-9.3-14-0.1-19.3l90.6-52.7c9.1-5.3,24.1-5.3,33.3,0L-108.7,269.8z"/>
<path fill="#B49DF4" d="M-97.5,275.1l-49.3,28.5c-9.2,5.4-24.3,5.4-33.6,0L-300.9,234c-4.7-2.7-7-6.3-7-9.8l-0.1,7.7
	c0,3.6,2.3,7.1,7,9.8l120.5,69.6c9.3,5.4,24.4,5.4,33.6,0l49.3-28.5c4.6-2.7,6.9-6.2,6.9-9.7l0.1-7.7
	C-90.6,268.9-92.9,272.4-97.5,275.1z"/>
<path fill="#EBE6FF" d="M-97.5,275.1l-49.4,28.5c-9.2,5.4-24.3,5.4-33.6,0l-13.6-7.9L-300.9,234c-9.3-5.4-9.4-14.1-0.1-19.5
	l45.8-26.4l3.6-2.1c9.2-5.4,24.3-5.4,33.6,0l120.5,69.6C-88.3,261-88.2,269.7-97.5,275.1z"/>
<path fill="#F5F3FF" d="M-148.3,269l-45.8,26.6L-300.9,234c-9.3-5.4-9.4-14.1-0.1-19.5l45.8-26.4l106.9,61.7
	C-139.2,255.1-139.1,263.7-148.3,269z"/>
<g>
	<polygon fill="#5920D6" points="-47.4,87.4 -47.5,124.6 -76.4,141.4 -76.3,104.2 	"/>
	<polygon fill="#6123EA" points="-76.3,104.2 -76.4,141.4 -105.4,124.6 -105.3,87.4 	"/>
	<polygon fill="#5920D6" points="-47.4,87.4 -76.3,104.2 -105.3,87.4 -76.5,70.7 	"/>
	<polygon fill="#4B1AD3" points="-76.5,70.7 -76.4,104.2 -47.4,87.4 	"/>
	<path fill="#F5F3FF" d="M-74.5,136.5c1.8,1,1.8,2.7,0,3.8l-17.7,10.3c-1.8,1-4.7,1-6.5,0l-23.2-13.4c-1.8-1-1.8-2.7,0-3.8
		l17.7-10.3c1.8-1,4.7-1,6.5,0L-74.5,136.5z"/>
	<polygon fill="#4B1AD3" points="-76.5,70.7 -105.3,87.4 -76.4,104.2 -47.4,87.4 	"/>
	<g>
		<polygon fill="#C42241" points="-87.8,77.3 -93.3,80.4 -64.3,97.1 -58.8,94 		"/>
		<polygon fill="#EA4C55" points="-58.8,94 -58.8,131.1 -64.1,134.2 -64.3,97.1 		"/>
	</g>
	<g>
		<polygon fill="#C42241" points="-65,77.3 -59.6,80.4 -88.5,97.1 -94.1,94 		"/>
		<polygon fill="#EA4C55" points="-94.1,94 -94.1,131.1 -88.8,134.2 -88.5,97.1 		"/>
	</g>
	<g>
		<path fill="#C42241" d="M-88.6,72.5l5.7-3.3c-0.3,0.1-0.4,0.5-0.3,0.9c0,0.5,0.3,1,0.6,1.5l-5.7,3.3c-0.4-0.4-0.6-1-0.6-1.5
			C-89,73-88.8,72.7-88.6,72.5z"/>
		<polygon fill="#C42241" points="-88.3,74.9 -82.6,71.6 -77.4,77.9 -83,81.2 		"/>
		<path fill="#EA4C55" d="M-73.5,83.9l-5.7,3.3c0,0,0,0,0.1,0c0.3-0.2,0.3-0.7,0-1.2l5.7-3.3C-73.2,83.1-73.2,83.6-73.5,83.9
			C-73.5,83.8-73.5,83.9-73.5,83.9z"/>
		<path fill="#EA4C55" d="M-79.1,85.9c0.3,0.5,0.2,1,0,1.2c-0.2,0.1-0.4,0.1-0.6,0c-0.1-0.1-0.3-0.2-0.4-0.3l-8.9-10.6
			c-0.9-1-1.4-2.3-1.5-3.5c-0.1-1.2,0.3-2,1.1-2.3c0.5-0.2,1.2-0.1,1.8,0.3c0.1,0.1,0.2,0.1,0.3,0.2c0.8,0.5,1.5,1.4,1.9,2.3
			L-79.1,85.9z M-88.3,74.9l5.3,6.3l-3.7-7.5c-0.2-0.4-0.5-0.8-0.8-1c0,0-0.1-0.1-0.1-0.1c-0.3-0.2-0.5-0.2-0.8-0.1
			c-0.3,0.1-0.5,0.5-0.4,1C-88.9,73.9-88.7,74.5-88.3,74.9L-88.3,74.9z"/>
		<polygon fill="#C42241" points="-75.7,85.8 -70.1,82.5 -61.1,83.5 -66.8,86.8 		"/>
		<path fill="#EA4C55" d="M-60.5,83.4l-5.7,3.3c-0.2,0.1-0.4,0.1-0.7,0.1l5.7-3.3C-60.9,83.6-60.6,83.5-60.5,83.4z"/>
		<path fill="#C42241" d="M-59.3,79.6c-0.7-1.2-1.6-2.2-2.6-2.7c-0.9-0.5-1.9-0.7-2.6-0.3l-9.4,5.3l-6-12c-0.5-1-1.2-1.8-1.9-2.3
			c-0.1-0.1-0.2-0.1-0.3-0.2c-0.7-0.4-1.3-0.5-1.8-0.3c-0.1,0-0.2,0.1-0.2,0.1l-5.7,3.3c0.1,0,0.1-0.1,0.2-0.1
			c0.5-0.2,1.2-0.1,1.8,0.3c0.1,0.1,0.2,0.1,0.3,0.2c0.8,0.5,1.5,1.4,1.9,2.3l6,12l-0.4,0.2l0.4-0.2l0.3,0.7l5.7-3.3l-0.3-0.6
			l3.7-2.1c0.7-0.4,1.6-0.3,2.6,0.3c0.9,0.5,1.9,1.5,2.6,2.7c0.9,1.5,1.2,3.1,1,4.4c-0.1,0.7-0.5,1.3-1,1.5l5.7-3.3
			c0.5-0.3,0.8-0.8,1-1.5C-58,82.7-58.4,81-59.3,79.6z"/>
		<path fill="#EA4C55" d="M-65,82.9c0.9,1.5,1.2,3.1,1,4.4c-0.2,1.2-1.1,1.9-2.2,1.8L-79,87.6c-0.1,0-0.2-0.1-0.3-0.1
			c-0.3-0.2-0.5-0.5-0.7-0.8c-0.2-0.5-0.2-1,0.1-1.2l9.8-5.6c0.7-0.4,1.6-0.3,2.6,0.3C-66.6,80.7-65.7,81.6-65,82.9z M-65.6,85.9
			c0.1-0.7-0.1-1.5-0.5-2.3c-0.4-0.7-0.9-1.2-1.4-1.5c-0.5-0.3-1-0.4-1.4-0.1l-6.8,3.9l8.9,1C-66.2,86.9-65.8,86.5-65.6,85.9
			L-65.6,85.9z"/>
	</g>
</g>
<g>
	<path opacity="0.1" fill="#F5F3FF" enable-background="new    " d="M-82.4,362.6c1.8,1,1.8,2.7,0,3.8l-17.7,10.3
		c-1.8,1-4.7,1-6.5,0l-23.3-13.4c-1.8-1-1.8-2.7,0-3.8l17.7-10.3c1.8-1,4.7-1,6.5,0L-82.4,362.6z"/>
	<polygon fill="#5920D6" points="-55.2,313.4 -55.3,350.6 -84.2,367.4 -84.1,330.2 	"/>
	<polygon fill="#6123EA" points="-84.1,330.2 -84.2,367.4 -113.3,350.6 -113.2,313.4 	"/>
	<polygon fill="#5920D6" points="-55.2,313.4 -84.1,330.2 -113.2,313.4 -84.3,296.6 	"/>
	<polygon fill="#EA4C55" points="-96.1,344.7 -84.2,330.2 -113.3,313.4 -125.2,327.9 	"/>
	<polygon fill="#4B1AD3" points="-84.3,296.6 -84.2,330.2 -55.2,313.4 	"/>
	<polygon fill="#EA4C55" points="-55.2,313.4 -44,327.6 -72.9,344.4 -84.1,330.2 	"/>
</g>
<g>
	<g>
		<g>
			<path fill="#B49DF4" d="M-147.7,47.5l-80-46.2c-2.6-1.5-5-1.6-6.7-0.7l-5.4,3.2c1.7-1,4.1-0.9,6.7,0.7l80,46.2
				c5.2,3,9.4,10.2,9.3,16.2l-0.5,195.3c0,3-1.1,5-2.7,6l5.4-3.2c1.7-1,2.7-3.1,2.7-6l0.5-195.3C-138.4,57.7-142.5,50.5-147.7,47.5z
				"/>
			<path fill="#F5F3FF" d="M-153.1,50.6c5.2,3,9.4,10.2,9.3,16.2l-0.5,195.3c0,5.9-4.2,8.3-9.4,5.4l-80-46.2
				c-5.2-3-9.4-10.2-9.3-16.2l0.5-195.3c0-5.9,4.2-8.3,9.4-5.4L-153.1,50.6z"/>
		</g>
		<polygon fill="#FE535C" points="-151.8,242 -235.1,193.9 -235.1,19 -151.8,67 		"/>
		<path fill="#B49DF4" d="M-203.5,223.3c0-2.7,1.9-3.8,4.2-2.4c2.3,1.4,4.2,4.6,4.2,7.3c0,2.7-1.9,3.8-4.2,2.4
			C-201.6,229.3-203.5,226-203.5,223.3z"/>
	</g>
	<g>
		<path fill="#B49DF4" d="M-186.6,41l-13.7-7.9c-0.6-0.3-1-1.2-1-1.9l0,0c0-0.7,0.5-1.1,1-0.8l13.7,7.9c0.6,0.3,1,1.2,1,1.9l0,0
			C-185.6,40.9-186,41.3-186.6,41z"/>
		<polygon fill="#B49DF4" points="-151.8,67 -151.8,105.2 -186,125.2 -184.4,112.5 		"/>
		<g>
			<polygon fill="#6123EA" points="-257.8,69.8 -225.2,24.3 -236.2,17.9 -268.9,63.4 			"/>
			<polygon fill="#F5F3FF" points="-247.3,75.9 -214.7,30.4 -225.8,24 -258.4,69.5 			"/>
			<polygon fill="#6123EA" points="-236.9,82 -204.2,36.5 -215.3,30.1 -247.9,75.6 			"/>
			<polygon fill="#F5F3FF" points="-226.4,88.1 -193.8,42.6 -204.8,36.2 -237.4,81.7 			"/>
			<polygon fill="#6123EA" points="-215.9,94.2 -183.3,48.7 -194.3,42.3 -226.9,87.8 			"/>
			<polygon fill="#F5F3FF" points="-205.4,100.3 -172.8,54.8 -183.8,48.4 -216.4,93.9 			"/>
			<polygon fill="#6123EA" points="-194.9,106.4 -162.3,60.9 -173.3,54.5 -206,100 			"/>
			<polygon fill="#F5F3FF" points="-184.4,112.5 -151.8,67 -162.8,60.6 -195.5,106.1 			"/>
		</g>
		<path fill="#5920D6" d="M-263.3,82l-0.8-0.4c-2.7-1.6-4.9-5.8-4.9-9.4l0.2-8.7l10.5,6l-0.1,8.8C-258.4,81.9-260.6,83.6-263.3,82z"
			/>
		<path fill="#E2DFF4" d="M-252.8,88l-0.8-0.4c-2.7-1.6-4.9-5.8-4.9-9.4l0.1-8.7l10.5,6v8.8C-247.8,87.9-250,89.6-252.8,88z"/>
		<path fill="#5920D6" d="M-242.3,94l-0.8-0.4c-2.7-1.6-4.9-5.8-4.9-9.4l0.1-8.6l10.4,6.2l0.1,8.6C-237.3,93.9-239.5,95.6-242.3,94z
			"/>
		<path fill="#E2DFF4" d="M-231.8,100l-0.8-0.4c-2.7-1.6-4.9-5.8-4.9-9.4l0.1-8.5l10.5,6.1l0.1,8.5C-226.8,99.9-229,101.6-231.8,100
			z"/>
		<path fill="#5920D6" d="M-221.3,106.2l-0.8-0.4c-2.7-1.6-4.9-5.8-4.9-9.4l0.1-8.5l10.5,6.1l0.1,8.6
			C-216.4,106.1-218.6,107.8-221.3,106.2z"/>
		<path fill="#E2DFF4" d="M-210.9,112.5l-0.8-0.4c-2.7-1.6-4.9-5.8-4.9-9.4l0.1-8.7l10.5,6.1v8.8
			C-205.9,112.4-208.2,114-210.9,112.5z"/>
		<path fill="#5920D6" d="M-200.2,118.7l-0.8-0.4c-2.7-1.6-4.9-5.8-4.9-9.4l0-8.8l10.7,6.2v8.8
			C-195.3,118.6-197.5,120.2-200.2,118.7z"/>
		<path fill="#E2DFF4" d="M-189.4,125l-1.2-0.8c-2.7-1.6-4.9-5.8-4.9-9.4V106l11,6.4l0,8.8C-184.4,124.9-186.7,126.6-189.4,125z"/>
	</g>
</g>
<path fill="#CCC9F4" d="M-243.1,160.2l0.5-78.4L-243.1,160.2z"/>
<g>
	<polygon fill="#3713BC" points="-274.8,144.1 -274.8,163.1 -291.2,153.6 -279.9,150.6 	"/>
	<polygon fill="#4B1AD3" points="-236.3,255.5 -291.2,223.8 -279.9,220.8 -274.8,214.3 -219.8,246 -231.1,249 	"/>
	<polygon fill="#6123EA" points="-236.3,185.3 -236.5,255.5 -291.4,223.8 -291.2,153.6 	"/>
	<polygon fill="#6123EA" points="-219.8,175.8 -219.8,246 -231.1,249 -231.1,178.8 	"/>
	<polygon fill="#5920D6" points="-236.3,185.3 -231.1,178.8 -231.1,249 -236.5,255.5 	"/>
	<polygon fill="#4B1AD3" points="-219.8,175.8 -231.1,178.8 -236.3,185.3 -274.8,163.1 -274.8,144.1 	"/>
	<polygon fill="#3713BC" points="-279.9,150.6 -279.9,160.1 -274.8,163.1 -274.8,144.1 	"/>
	<path fill="#3713BC" d="M-274.3,180.1c0,2.5-1.7,3.4-3.9,2.2c-2.1-1.2-3.9-4.2-3.9-6.7c0-2.5,1.7-3.4,3.9-2.2
		C-276.1,174.6-274.3,177.6-274.3,180.1z"/>
	<path fill="#3713BC" d="M-248.6,195.1c0,2.5-1.7,3.4-3.9,2.2c-2.1-1.2-3.9-4.2-3.9-6.7s1.7-3.4,3.9-2.2
		C-250.3,189.7-248.6,192.6-248.6,195.1z"/>
	<g>
		<path fill="#3713BC" d="M-265.5,216.9c-9.2-4.9-13.9-15.2-13.9-23.9v-5.5c0-0.9,0.6-1.3,1.4-0.8c0.8,0.5,1.4,1.6,1.4,2.5v5.5
			c0,7,4.9,15.5,11,19c6.1,3.5,11,0.7,11-6.3v-5.5c0-0.9,0.6-1.3,1.4-0.8c0.8,0.5,1.4,1.6,1.4,2.5v5.5
			C-251.6,217.8-257.8,221.3-265.5,216.9z"/>
	</g>
	<g>
		<path fill="#EA4C55" d="M-265.5,208.1c-9.2-4.9-13.9-15.2-13.9-23.9v-5.5c0-0.9,0.6-1.3,1.4-0.8c0.8,0.5,1.4,1.6,1.4,2.5v5.5
			c0,7,4.9,15.5,11,19c6.1,3.5,11,0.7,11-6.3V193c0-0.9,0.6-1.3,1.4-0.8c0.8,0.5,1.4,1.6,1.4,2.5v5.5
			C-251.7,209-257.9,212.6-265.5,208.1z"/>
	</g>
</g>
<g>
	<g>
		<path fill="#B49DF4" d="M-68,183.4l-93.3-53.5c-1.8-1-3.4-1.1-4.5-0.4l-2.2,1.3c1.2-0.7,2.8-0.6,4.5,0.4l93.3,53.5
			c3.5,2,6.3,6.9,6.3,10.9l-0.1,64.9c0,2-0.7,3.4-1.9,4.1l2.2-1.3c1.1-0.7,1.8-2.1,1.9-4.1l0.1-64.9
			C-61.6,190.3-64.5,185.4-68,183.4z"/>
		<path fill="#6123EA" d="M-70.1,184.6c3.5,2,6.3,6.9,6.3,10.9l-0.1,64.9c0,4-2.9,5.6-6.4,3.6l-93.3-53.5c-3.5-2-6.3-6.9-6.3-10.9
			l0.1-64.9c0-4,2.9-5.6,6.4-3.6L-70.1,184.6z"/>
	</g>
	<path fill="#F5F3FF" d="M-148.5,174.4l-8.3-4.8c-1.8-1-3.3-3.8-3.3-6.3V155c0-2.4,1.5-3.5,3.3-2.5l8.3,4.8c1.8,1,3.3,3.8,3.3,6.3
		v8.3C-145.2,174.3-146.7,175.4-148.5,174.4z"/>
	<g>
		<path fill="#FE535C" d="M-80.4,238.5c0,3.6-2.6,5.1-5.7,3.3c-3.1-1.8-5.7-6.2-5.7-9.8c0-3.6,2.6-5.1,5.7-3.3
			C-83,230.5-80.4,234.9-80.4,238.5z"/>
		<path fill="#F5F3FF" d="M-72.6,243c0,3.6-2.6,5.1-5.7,3.3c-3.1-1.8-5.7-6.2-5.7-9.8c0-3.6,2.6-5.1,5.7-3.2
			C-75.2,235-72.6,239.4-72.6,243z"/>
	</g>
	<g>
		<path fill="#F5F3FF" d="M-158.8,193.1l9.3,5.4c0.7,0.4,1.3,1.5,1.3,2.4l0,0c0,0.9-0.6,1.4-1.3,1l-9.3-5.4
			c-0.7-0.4-1.3-1.5-1.3-2.4l0,0C-160.1,193.1-159.5,192.7-158.8,193.1z"/>
		<path fill="#F5F3FF" d="M-145.2,201l9.3,5.4c0.7,0.4,1.3,1.5,1.3,2.4l0,0c0,0.9-0.6,1.4-1.3,1l-9.3-5.4c-0.7-0.4-1.3-1.5-1.3-2.4
			l0,0C-146.4,201-145.9,200.6-145.2,201z"/>
		<path fill="#F5F3FF" d="M-130.9,209.2l9.3,5.4c0.7,0.4,1.3,1.5,1.3,2.4l0,0c0,0.9-0.6,1.4-1.3,1l-9.3-5.4
			c-0.7-0.4-1.3-1.5-1.3-2.4l0,0C-132.2,209.2-131.6,208.8-130.9,209.2z"/>
		<path fill="#F5F3FF" d="M-116.8,217.3l9.3,5.4c0.7,0.4,1.3,1.5,1.3,2.4l0,0c0,0.9-0.6,1.4-1.3,1l-9.3-5.4
			c-0.7-0.4-1.3-1.5-1.3-2.4l0,0C-118.1,217.4-117.5,216.9-116.8,217.3z"/>
	</g>
	<path fill="#4B1AD3" d="M-78.6,209l-55.7-32.2c-0.9-0.5-1.7-1.9-1.7-3.2v-5.4c0-1.2,0.7-1.8,1.7-1.3l55.7,32.2
		c0.9,0.5,1.7,1.9,1.7,3.2v5.4C-76.9,209-77.7,209.6-78.6,209z"/>
</g>
<g>
	<g>
		<path fill="#FE535C" d="M-293.9,20c3.1-1.8,5.5-0.4,5.5,3.2l0.1,43c0,3.5-2.5,7.8-5.5,9.5l-50.9,29.4c-2.7,1.6-5.3,1.6-6.9-0.1
			l-11.5-11.4c-2.2-2.2-2.2-6.9,0-11.5l11.4-24.6c1.6-3.5,4.2-6.5,6.9-8L-293.9,20z M-350,86.7c3.1-1.8,5.6-6.1,5.6-9.6
			c0-3.5-2.5-4.9-5.6-3.2c-3.1,1.8-5.6,6.1-5.5,9.6C-355.5,87.1-353,88.5-350,86.7L-350,86.7z"/>
		<g>
			<path fill="#C42241" d="M-292.1,18.4c-1-0.6-2.4-0.5-3.9,0.4l-50.8,29.4c-2.7,1.6-5.3,4.6-6.9,8l-11.4,24.6
				c-2.2,4.7-2.2,9.4,0,11.5l11.5,11.4c0.3,0.3,0.5,0.5,0.8,0.7l2.2,1.3c-0.3-0.2-0.6-0.4-0.8-0.7l-11.5-11.4
				c-2.2-2.2-2.2-6.9,0-11.5l11.4-24.6c1.6-3.5,4.2-6.5,6.9-8l50.8-29.4c1.5-0.9,2.9-1,3.9-0.4L-292.1,18.4z"/>
			<path fill="#C42241" d="M-346,73.5l-2.2-1.3c1,0.6,1.6,1.8,1.6,3.6c0,3.5-2.5,7.8-5.6,9.6c-1.5,0.9-2.9,1-4,0.4l2.2,1.3
				c1,0.6,2.4,0.5,4-0.4c3.1-1.8,5.6-6.1,5.6-9.6C-344.4,75.4-345,74.1-346,73.5z"/>
		</g>
	</g>
	<g>
		<path fill="#FFFFFF" d="M-326.9,67c-1-0.6-1.6-1.9-1.6-4c0-1.4,0.2-2.8,0.7-4.1c0.5-1.3,1.2-2.5,2-3.5c0.9-1,1.8-1.8,2.9-2.5
			c1.1-0.6,2-0.9,2.9-0.9c0.9,0,1.5,0.4,2,1.2c0.5,0.7,0.7,1.8,0.7,3.2c0,2.1-0.5,4.1-1.6,5.9c-1,1.8-2.4,3.2-4,4.1
			C-324.5,67.4-325.8,67.6-326.9,67z M-310.4,46.1l5.1-2.9l-14.4,32.6l-5.1,2.9L-310.4,46.1z M-321.9,61.4c0.3-0.6,0.4-1.5,0.4-2.5
			c0-1.1-0.1-1.8-0.4-2.1c-0.3-0.3-0.6-0.4-1-0.2c-0.4,0.2-0.7,0.6-0.9,1.3c-0.3,0.6-0.4,1.5-0.4,2.5c0,1.1,0.1,1.8,0.4,2.1
			c0.3,0.3,0.6,0.4,0.9,0.2C-322.4,62.5-322.1,62.1-321.9,61.4z M-311.4,69.5c-1-0.6-1.6-1.9-1.6-4c0-1.4,0.2-2.8,0.7-4.1
			c0.5-1.3,1.1-2.5,2-3.5c0.9-1,1.8-1.8,2.9-2.5c1.1-0.6,2-0.9,2.9-0.9c0.9,0,1.5,0.4,2,1.2c0.5,0.7,0.7,1.8,0.7,3.2
			c0,2.1-0.5,4.1-1.6,5.9c-1,1.8-2.4,3.2-4,4.1C-309,69.9-310.3,70.1-311.4,69.5z M-306.4,63.9c0.3-0.6,0.4-1.5,0.4-2.5
			c0-1.1-0.1-1.8-0.4-2.1c-0.3-0.3-0.6-0.4-0.9-0.2c-0.4,0.2-0.7,0.6-1,1.3c-0.3,0.6-0.4,1.5-0.4,2.5c0,1.1,0.1,1.8,0.4,2.1
			c0.2,0.3,0.6,0.4,1,0.2C-307,65-306.6,64.5-306.4,63.9z"/>
	</g>
</g>
<g>
	<g>
		<path fill="#B49DF4" d="M-232.6,115.8l-42.7-24.6c-1.4-0.8-2.7-0.9-3.7-0.4l-1.8,1c0.9-0.5,2.2-0.5,3.7,0.4l42.7,24.6
			c2.9,1.7,5.2,5.7,5.2,8.9l-0.1,20.1c0,1.6-0.6,2.8-1.5,3.3l1.8-1c0.9-0.5,1.5-1.7,1.5-3.3l0.1-20.1
			C-227.4,121.4-229.7,117.4-232.6,115.8z"/>
		<path fill="#6123EA" d="M-234.3,116.8c2.9,1.6,5.2,5.7,5.2,8.9l-0.1,20.1c0,3.3-2.3,4.6-5.2,3l-42.7-24.6
			c-2.9-1.7-5.2-5.7-5.2-8.9l0.1-20.1c0-3.3,2.3-4.6,5.2-3L-234.3,116.8z"/>
	</g>
	<g>
		<g>
			<path fill="#FFFFFF" d="M-254.3,115.5l-16.2-9.4c-0.4-0.3-0.8-0.9-0.8-1.5l0,0c0-0.6,0.4-0.9,0.8-0.6l16.2,9.4
				c0.4,0.3,0.8,0.9,0.8,1.5l0,0C-253.5,115.5-253.9,115.8-254.3,115.5z"/>
			<path fill="#FFFFFF" d="M-243.4,121.8l-5.9-3.4c-0.4-0.3-0.8-0.9-0.8-1.5l0,0c0-0.6,0.4-0.9,0.8-0.6l5.9,3.4
				c0.4,0.3,0.8,0.9,0.8,1.5l0,0C-242.6,121.8-242.9,122.1-243.4,121.8z"/>
		</g>
		<g>
			<path fill="#FFFFFF" d="M-254.3,129.4l-16.2-9.4c-0.4-0.3-0.8-0.9-0.8-1.5l0,0c0-0.6,0.4-0.9,0.8-0.6l16.2,9.4
				c0.4,0.3,0.8,0.9,0.8,1.5l0,0C-253.5,129.4-253.9,129.7-254.3,129.4z"/>
			<path fill="#FFFFFF" d="M-243.4,135.8l-5.9-3.4c-0.4-0.3-0.8-0.9-0.8-1.5l0,0c0-0.6,0.4-0.9,0.8-0.6l5.9,3.4
				c0.4,0.3,0.8,0.9,0.8,1.5l0,0C-242.6,135.8-242.9,136-243.4,135.8z"/>
		</g>
		<g>
			<path fill="#FFFFFF" d="M-259.6,117.3l16.2,9.4c0.4,0.3,0.8,0.9,0.8,1.5l0,0c0,0.6-0.4,0.9-0.8,0.6l-16.2-9.4
				c-0.4-0.3-0.8-0.9-0.8-1.5l0,0C-260.4,117.3-260,117-259.6,117.3z"/>
			<path fill="#FFFFFF" d="M-270.5,111l5.9,3.4c0.4,0.3,0.8,0.9,0.8,1.5l0,0c0,0.6-0.4,0.9-0.8,0.6l-5.9-3.4
				c-0.4-0.3-0.8-0.9-0.8-1.5l0,0C-271.4,111-271,110.7-270.5,111z"/>
		</g>
	</g>
</g>
<g>
	<path opacity="0.1" fill="#F5F3FF" enable-background="new    " d="M39.1,363.1c13.6,8,35.7,8,49.4-0.1
		c13.7-8.1,13.8-21.2,0.2-29.2c-13.6-8.1-35.8-8-49.4,0.1S25.5,355.1,39.1,363.1z"/>
	<path fill="#4702AB" d="M49.7,340.4c0.5,2.4,3,10.6,2.9,15c-0.2,4.5-1.4,9-4.5,9.6c-3.7,0.8-6.9-3.3-7.8-6.3
		c-0.9-3-0.8-13.2-0.3-15.7C40.5,340.6,49.7,340.4,49.7,340.4z"/>
	<path fill="#E1E7EF" d="M73.5,318.7c0.2,2.2,0.6,5,1.1,5.9c0.6,0.9-8.1,4.6-8.1,4.6l-2.3-5.9l1.3-5.8L73.5,318.7z"/>
	<path fill="#6123EA" d="M48.7,334.9c0.8,2.1,1.3,4.2,0.8,6.7c-0.5,2.5,3.5,8.1,2,15.8c-0.9,4.6-2.7,5.6-4.6,5.6
		c-1.9,0-5.6-2.1-6.6-7.6c-0.8-4.6-0.8-13.5-0.3-17.8C41.3,326.6,48.7,334.5,48.7,334.9z"/>
	<path fill="#E1E7EF" d="M48.3,335.3c0,0,0.8,2.4,0.2,3.6c-0.4,0.9-0.9,1.2-3,0.8c-1.8-0.3-2.7,0.3-3.7,0.6c-1,0.3-1.4-2.5-1.2-3.9
		C40.9,335.1,48.3,335.3,48.3,335.3z"/>
	<path fill="#FE535C" d="M75.9,194.9c0,0,4.4,46.1-0.5,79.2c-1.1,22-0.4,40.6-1,44.4c-0.7,3.8-9.5,3.4-10.1,1
		c-0.8-4.2-4.2-24.6-1.9-44.6c-0.9-14.9-3.6-28.7-3.6-28.7s-1.3,12.5-2.9,27.6c-2.4,22.5-5.3,54.4-5.8,58.8c-0.6,6-9.8,5.7-10.7,2
		c-0.4-1.7-2.3-30.2,1.1-58.6c-2.4-34.4-5.7-59.9-0.1-78.6C59.4,206.2,75.9,194.9,75.9,194.9z"/>
	<g>
		<path fill="#C42241" d="M75.9,194.9c0,0,0.3,2.6,0.3,3.8c-4,6.6-27.8,11.6-37,2.9l0.8-3.2L75.9,194.9z"/>
	</g>
	<path fill="#6123EA" d="M39.4,197.8c1.1,11.1,37.2,5.9,36.5-2.9c-1.6-20.3,5.6-51-3.3-62.7c-4-5.2-25.8,1.6-25.8,1.6
		s-10,6.7-11.1,10.4C32.1,157,37.3,176.6,39.4,197.8z"/>
	<path fill="#6123EA" d="M60.4,131c0,0,8.2-1.9,14.4,0.4c8.9,3.2,13.4,22.2,18.9,29.2c5.5,6.9,24.8,17.4,24.8,17.4l-4.2,9.1
		c0,0-22.6-12-28.7-18.9c-3.4-3.9-12-16-12-16l-5-5L60.4,131z"/>
	<path fill="#4B1AD3" d="M59.8,140.1c7.2,8.4,8,41.5,8.2,50.5c-1,5.2-3.8,9.2-3.8,9.2s-5.6-3.9-6.7-7c-0.5-4.9,3.8-38.2,0.7-53.1
		C58.2,139.3,59.8,140.1,59.8,140.1z"/>
	<path fill="#AB8DFF" d="M61.3,135.3c-0.2,3.1-0.8,4.9-1.6,5.4c-0.9,0.5-2.2,0.4-4.1-1c-1.9-1.4-1.1-6.2-1.1-6.2
		S61.5,131.3,61.3,135.3z"/>
	<path fill="#FEC2BE" d="M60.7,123.1c0,0,1.1,7.2,0.2,8.9c-0.9,1.7-7.1,5.2-11.6-0.6c-0.2-8.5-0.8-16.3-0.8-16.3L60.7,123.1z"/>
	<path fill="#EDADAB" d="M51.1,119c0,0,1.7,6.3,10.1,9.9c-0.2-3.6-0.5-5.6-0.5-5.6L51.1,119z"/>
	<path fill="#6123EA" d="M46.8,133.7c-5.5,2.7-16,7.8-20.4,12.8c-8.3,9.2-14.4,25.7-13.8,35.2c0.6,9.4,21.2,29.8,21.2,29.8l6.9-6.1
		c0,0-15.3-15.8-16.3-23.4c-1.4-9.9,15.8-26.2,15.8-26.2l11.3-6.1L46.8,133.7z"/>
	<path fill="#4B1AD3" d="M59.1,133.6c0.5,0,1.9,3.8,2.6,5.5c0.2,0.5,0.8,0.6,1.1,0.2c0.2-0.3,0.5-0.6,0.6-1c0.8-1.7,0.8-3.7-0.1-5.3
		c-0.5-0.9-1.1-2.2-2.1-2.8C61.3,131.9,59.1,133.6,59.1,133.6z"/>
	<path fill="#4B1AD3" d="M56.2,134.6c0,0-0.6,3-1.9,6.5c-0.1,0.3-0.4,0.4-0.6,0.2c-3.5-2-5.7-5.6-6.5-7.1c-0.2-0.3-0.4-0.8-0.1-1.1
		c0.4-0.5,1.3-1.8,2.3-2.3C50,132.8,53.2,134.6,56.2,134.6z"/>
	<g>
		<path fill="#C42241" d="M58.8,246.2c0,0,4.9-15.3,7.9-26.2c-1.8,2-4.3,3.5-6.6,3.5C59.7,228,58.8,246.2,58.8,246.2z"/>
	</g>
	<path fill="#AB8DFF" d="M59.7,139.5c7.6,8.1,9.9,41,10.5,50.1c-0.7,5.3-3.3,9.3-3.3,9.3s-5.8-3.7-7-6.7c-0.7-4.8,2.1-38.3-1.6-53.1
		C58.1,138.8,59.7,139.5,59.7,139.5z"/>
	<polygon fill="#4B1AD3" points="76.9,157.1 76.2,149.8 84.7,167.3 	"/>
	<path fill="#4702AB" d="M91.4,339.1c0.2,1.4,0.1,3-1.6,3.8c-1.9,1-5.6,1-9.9-1.9c-4.2-2.9-5.6-6.6-8.1-7.3c-2.5-0.7-5.8-0.8-7-2.3
		c-1.9-2.6-0.3-3.6-0.3-3.6L91.4,339.1z"/>
	<path fill="#6123EA" d="M71.1,325.8c1.8-2.7,3.6-4.3,5.9-1.9c2.4,2.6,3.4,4.1,5.8,5.8c1.7,1.3,8.3,6.4,8.6,9.4
		c0.2,2.9-2.4,3.6-7.2,2.5c-4.8-1-8.9-7.3-10.5-8.4c-1.8-1.3-7.7-1.7-9-3.2c-1.4-1.5-0.4-6.7-0.4-6.7S70.1,327.4,71.1,325.8z"/>
	<path fill="#FEC2BE" d="M72.4,98.4c0,0,1.2,7.6-0.5,12.3c0.1,5.2-1.8,13-5.6,16c-4.1,3.3-14.6-4.9-14.6-4.9s-7.5-13.9-4.4-18.8
		C50.4,98,71.4,90.2,72.4,98.4z"/>
	<path fill="#4702AB" d="M73.1,104.5c2.3-3,1.4-9.5-5.1-13.8c-5.6-3.7-16.4-4.5-20,3.4c-8,1.3-4.6,11.3,0.7,23.1
		c-1.3-6.6,0.3-9.6,3.1-7.4c1.7,1.3,1.9,4.3,3,4.3c1.7,0.1,0-7.2,4.1-9.2C64.8,102,71.4,106.7,73.1,104.5z"/>
	<path fill="#FEC2BE" d="M45.3,112.4c0,2.3,1.9,5.1,3.9,5.1s4.3-1.9,4.3-4.2c0-2.3-1.8-4.2-4.3-4.2C47.2,108.9,45.3,110,45.3,112.4z
		"/>
	<polygon fill="#4B1AD3" points="34.8,161.9 37.2,157.8 39.4,197.4 	"/>
	<path fill="#4B1AD3" d="M114,181.4c-1.1,2.6-1,5.1,0.3,5.7c1.3,0.6,3.3-1,4.4-3.5c1.1-2.6,1-5.1-0.3-5.7
		C117.1,177.3,115.1,178.9,114,181.4z"/>
	<path fill="#4B1AD3" d="M36.1,206.9c-2,1.6-3,3.7-2.3,4.6c0.7,0.9,2.9,0.4,4.9-1.3c2-1.6,3-3.7,2.3-4.6
		C40.2,204.7,38,205.3,36.1,206.9z"/>
	<g>
		<path fill="#C42241" d="M37.2,219.6c9.4,0,14.9-11.7,14.9-15.4h-0.4c0,3.6-5.3,15-14.5,15L37.2,219.6L37.2,219.6z"/>
	</g>
	<path fill="#FEC2BE" d="M113.3,183.8c1.8,1.3,2,3,2.7,4.8c1.3,3.3,1.9,2.8,2.9,5.5c0.4,1,0.9,2.1,1.4,2.7c0.6,0.6,1.6,0.1,1.6-1.2
		c0-2.5-1.3-5.1-2.7-7.4c2.4,0.5,4.4,0.6,7,2.3c2.3,1.5,4.8,3.5,7.4,4.1c0.7,0.2,1.6-0.4,1.3-0.9c-1.6-2-5.9-4.6-9.3-7
		c5.2,2.1,9.1,5.2,10.3,5.9c0.8,0.5,2.2-0.3,1.9-0.7c-1.6-2.3-8.6-5.7-9.7-6.5c3,0.6,5,2.8,6.3,3.1c0.6,0.1,1.4-0.5,1.2-0.8
		c-0.9-1.2-3.1-2.4-4.4-3.1c-3-1.8-7.2-3.6-11.8-3.5c-2.1-0.8-4.3-1.7-4.3-1.7S112.5,183.2,113.3,183.8z"/>
	<path fill="#FEC2BE" d="M38.4,205.5l2.4,2.4c0,0,2.4-0.5,3.2-0.3s2.9,1.5,3.5,1.9c0.7,0.5,2.5,3.7,3.4,4.9c0.4,1.3-2.3,1-3.4-0.6
		c-1-1.5-2.7-3.2-3.3-3.5c1,0.9,2.3,3.3,2.8,3.8c-1.9,2.6-5.8,4.5-7.7,5.1c-1.2-2.5-2.1-3.5-2-5.5c-0.1-1.8-2.3-3.5-3.4-4.2
		C34.6,208.1,36.6,205.9,38.4,205.5z"/>
	<path fill="#4702AB" d="M55.5,157.2l-11.2,2.6L55.5,157.2z"/>
</g>
<g>
	<path opacity="0.1" fill="#F5F3FF" enable-background="new    " d="M-255,351.4c2.6,1.5,2.6,3.9,0,5.4l-25.3,14.7
		c-2.6,1.5-6.7,1.5-9.3,0l-33.2-19.2c-2.6-1.5-2.6-3.9,0-5.4l25.3-14.7c2.5-1.5,6.7-1.5,9.3,0L-255,351.4z"/>
	<g>
		<g>
			<path fill="#C42241" d="M-249.1,279c-0.4-0.5-0.9-0.9-1.4-1.2c-0.8-0.5-1.7-0.6-2.3-0.2l-1.9,1.1c0.6-0.4,1.4-0.3,2.3,0.2
				c0.5,0.3,0.9,0.7,1.4,1.2c1.6,1.8,2.2,4.4,1.5,5.8l-6.7,11.9c-0.2,0.3-0.4,0.5-0.6,0.6l1.9-1.1c0.2-0.1,0.4-0.4,0.6-0.6l6.7-11.9
				C-246.8,283.4-247.5,280.8-249.1,279z"/>
			<path fill="#FE535C" d="M-252.4,278.9c0.5,0.3,0.9,0.7,1.4,1.2c1.6,1.8,2.2,4.4,1.5,5.8l-6.7,11.9c-0.6,1-1.7,1.1-2.9,0.4
				c-0.5-0.3-0.9-0.7-1.4-1.2c-1.6-1.8-2.2-4.4-1.5-5.8l6.7-11.9C-254.7,278.4-253.5,278.2-252.4,278.9z"/>
			<path fill="#C42241" d="M-233.5,305.9l-4.6-18c-0.4-1.7-1.6-3.3-2.9-4.1c-0.3-0.2-0.7-0.3-1-0.4l-0.2,0c-0.5-0.1-0.9,0-1.2,0.2
				l-1.9,1.1c0.3-0.2,0.7-0.3,1.2-0.2l0.2,0c0.3,0.1,0.7,0.2,1,0.4c1.3,0.7,2.5,2.4,2.9,4.1l4.6,18c0.4,1.5,0.1,2.8-0.7,3.2l1.9-1.1
				C-233.4,308.7-233.1,307.5-233.5,305.9z"/>
			<path fill="#FE535C" d="M-242.9,285c1.3,0.7,2.5,2.4,2.9,4.1l4.6,18c0.6,2.2-0.3,3.7-1.9,3.4l-0.2,0c-0.3-0.1-0.7-0.2-1-0.4
				c-1.3-0.7-2.5-2.4-2.9-4.1L-246,288c-0.6-2.2,0.3-3.7,1.9-3.4l0.2,0C-243.5,284.7-243.2,284.8-242.9,285z"/>
		</g>
		<g>
			<path fill="#5920D6" d="M-253.3,330.2l35.2-20.5l-7.3,27.3c-0.5,1.9-1.8,3.6-3.5,4.6l-32.5,18.9L-253.3,330.2z"/>
			<polygon fill="#3713BC" points="-311.4,296.6 -276.2,276.1 -218,309.7 -253.3,330.2 			"/>
			<polygon fill="#4B1AD3" points="-306.6,296.6 -276.2,278.9 -222.8,309.7 -253.3,327.4 			"/>
			<path fill="#6123EA" d="M-253.3,330.2l-8.2,30.4l-38.1-22c-2.5-1.5-4.3-3.9-4.9-6.8l-7.1-35.2L-253.3,330.2z"/>
			<polygon fill="#3713BC" points="-276.2,278.9 -275.8,314.4 -306.6,296.6 			"/>
		</g>
		<path fill="#C42241" d="M-252.8,281c-0.5-0.3-0.9-0.3-1.2-0.1l-36.8,21.4c0.3-0.2,0.7-0.2,1.2,0.1c0.9,0.5,1.7,1.8,1.7,2.9
			c0,0.5-0.2,0.9-0.5,1.1l36.8-21.4c0.3-0.2,0.5-0.5,0.5-1.1C-251.1,282.8-251.8,281.5-252.8,281z"/>
		<path fill="#C42241" d="M-243.2,286.7c-0.5-0.3-0.9-0.3-1.2-0.1l-36.8,21.4c0.3-0.2,0.7-0.1,1.2,0.1c0.9,0.5,1.7,1.8,1.7,2.9
			c0,0.5-0.2,0.9-0.5,1.1l36.8-21.4c0.3-0.2,0.5-0.5,0.5-1.1C-241.6,288.5-242.3,287.2-243.2,286.7z"/>
		<g>
			<path fill="#C42241" d="M-285.5,300.9c-0.4-0.5-0.9-0.9-1.4-1.2c-0.8-0.5-1.7-0.6-2.3-0.2l-1.9,1.1c0.6-0.4,1.4-0.3,2.3,0.2
				c0.5,0.3,0.9,0.7,1.4,1.2c1.6,1.8,2.2,4.4,1.5,5.8l-6.7,11.9c-0.2,0.3-0.4,0.5-0.6,0.6l1.9-1.1c0.2-0.1,0.4-0.4,0.6-0.6l6.7-11.9
				C-283.3,305.2-284,302.7-285.5,300.9z"/>
			<path fill="#FE535C" d="M-288.8,300.8c0.5,0.3,0.9,0.7,1.4,1.2c1.6,1.8,2.2,4.4,1.5,5.8l-6.7,11.9c-0.6,1-1.7,1.1-2.9,0.4
				c-0.5-0.3-0.9-0.7-1.4-1.2c-1.6-1.8-2.2-4.4-1.5-5.8l6.7-11.9C-291.1,300.2-290,300.1-288.8,300.8z"/>
			<path fill="#C42241" d="M-270,327.8l-4.6-18c-0.4-1.7-1.6-3.3-2.9-4.1c-0.3-0.2-0.7-0.3-1-0.4l-0.2,0c-0.5-0.1-0.9,0-1.2,0.2
				l-1.9,1.1c0.3-0.2,0.7-0.3,1.2-0.2l0.2,0c0.3,0.1,0.7,0.2,1,0.4c1.3,0.7,2.5,2.4,2.9,4.1l4.6,18c0.4,1.6,0.1,2.8-0.7,3.2l1.9-1.1
				C-269.9,330.5-269.6,329.3-270,327.8z"/>
			<path fill="#FE535C" d="M-279.3,306.8c1.3,0.7,2.5,2.4,2.9,4.1l4.6,18c0.6,2.2-0.3,3.7-1.9,3.4l-0.2,0c-0.3-0.1-0.7-0.2-1-0.4
				c-1.3-0.7-2.5-2.4-2.9-4.1l-4.6-18c-0.6-2.2,0.3-3.7,1.9-3.4l0.2,0C-280,306.5-279.7,306.6-279.3,306.8z"/>
		</g>
	</g>
</g>
<g>
	<path fill="#F58D6C" d="M781.2-254.5c-18.7-2.3-23,13.4-43.6,17.9c0,0-25.7,0.7-21.5,8.6c1.1,2.1,4.3,3.7,7,4.2
		c-5.6,0.8-9.7,1.6-9.7,1.6c-29.9-16.1-36.3-7.9-36.3-7.9l37.3,17.1c0,0,48.6-1.6,49.6-1.7c1-0.1,15.9-21.8,15.9-21.8l95.8,34.6
		l6.7-24C882.4-225.7,786.9-253.8,781.2-254.5z"/>
	<path fill="#FFB287" d="M670.9-230c4.3-3.1,15.9-4.7,36.4,11.1c0,0,16.3-2.5,31.2,4.7c0,0,38.8-37.4,49.1-37.9
		c10.3-0.6,94.7,26.4,94.7,26.4l6.4,30l-27.8,6l-64.2-34.9c0,0-40,26.9-45.7,30.7c-7.3,4.8-30.3-10.6-45.2-13.2
		c-5.1-0.9-27.7-14.5-34.9-18.8C669.6-226.9,669.5-229,670.9-230z"/>
	<g>
		<polygon fill="#FFFFFF" points="800.5,-202.6 816.1,-246.8 889.7,-225.2 899,-190.9 858.4,-182.7 		"/>
		<polygon fill="#90AFAF" points="800.5,-202.6 823.6,-244.6 899,-190.9 858.4,-182.7 		"/>
		<polygon fill="#BA4200" points="806.8,-196.9 824.3,-246.6 899,-222.6 899,-182.7 899,-158.9 		"/>
		<path fill="#8E2F00" d="M822-202c0.3,1.9-1,3.7-2.9,4c-1.9,0.4-3.6-0.8-3.9-2.7c-0.3-1.9,1-3.7,2.9-4C820-205,821.7-203.8,822-202
			z"/>
		<path fill="#8E2F00" d="M832.5-198c0.3,1.9-1,3.7-2.9,4c-1.9,0.4-3.6-0.8-3.9-2.7s1-3.7,2.9-4C830.5-201,832.2-199.8,832.5-198z"
			/>
	</g>
	<path fill="#F58D6C" d="M658.4-326.7c0,0,31.2,10.2,44.6-5.6l17.8,2.2c0,0,10.3,26.4,20.8,23.2c4.5-1.4-1-6.7-13.3-30.1
		c0,0-17-12.5-44.3-13.6L658.4-326.7z"/>
	<path fill="#FFB287" d="M533-288.6l69.5-44.8c1.7-1.1,3.2-2.3,4.8-3.6c3.2-2.8,7.2-4.8,11.6-6.1c20-5.6,70.6-18.6,76.8-18.7
		c3.1,0,24.2,22.7,29.5,29.2c1,1.2,1.6,2.5,1.8,3.9c1.2,7,4.9,29.3,3.2,30.8c-2,1.9-11,2.5-17.1-29.2l-22.1-8.1l-6.6,10.1
		c0,0-24.1,22.8-54.9,9.2L533-224.5V-288.6z"/>
	<path fill="#F58D6C" d="M604.8-334.6c0,0,9.3,14.7,23.9,19.7l-7.1,7.2l-19.5-24.3L604.8-334.6z"/>
	<polygon fill="#FFFFFF" points="635.3,-291.9 604.4,-334.9 540.2,-291.1 541.4,-243.3 578.5,-248.3 	"/>
	<polygon fill="#90AFAF" points="635.3,-291.9 597,-329.7 536.6,-242.7 578.5,-248.3 	"/>
	<polygon fill="#374C58" points="631.2,-283.6 596.5,-331.9 533,-291.7 533,-209.3 	"/>
	<circle fill="#2A3C44" cx="618.6" cy="-283.5" r="2.7"/>
	<circle fill="#2A3C44" cx="611.7" cy="-277.9" r="2.7"/>
	<path fill="#F58D6C" d="M686.6-324.6l-3.7-5.3c-0.3-0.2-0.3-1.6,0.8-1.1c2.4,1,2.2,4.2,7.4-3.7L686.6-324.6z"/>
	<g>
		<path fill="none" stroke="#DFEDED" stroke-width="3.0716" stroke-miterlimit="10" d="M732.4-289.9c0.1-2-0.5-4-1.6-5.9
			c-3.1-4.8-9.5-6.3-14.3-3.2c-4.8,3.1-6.2,9.5-3.2,14.4c2.2,3.5,6.1,5.2,9.9,4.7"/>
		<path fill="#102333" d="M712.2-276.5L712-273c-0.2,4.1,2.9,7.8,7.1,8.4l2.6,0.3c4.2,0.5,7.8-2.3,8-6.4l0.2-3.5
			c0.2-4.1-2.9-7.8-7.1-8.4l-2.7-1.5C716-284.6,712.5-280.6,712.2-276.5z M721.6-281.1c2.7,0.4,2.5,3.9-0.2,3.5
			C718.7-277.9,718.9-281.4,721.6-281.1z"/>
		<polygon fill="#819DA5" points="725.1,-272.7 724.1,-255.3 726.4,-255 725.7,-253.7 723.9,-252.5 723.9,-252.1 726.1,-252 
			725.5,-250.5 723.7,-249.3 723.7,-248.9 725.9,-248.8 725.3,-247.3 724.1,-246.5 723.5,-245.1 719.1,-241.7 715.4,-246.2 
			716.6,-266 717.5,-267.5 		"/>
		<polygon fill="#C8D6D6" points="724.2,-247.5 724.1,-246.5 719.8,-243.1 716.1,-247.6 716.7,-257.4 716.8,-259.8 717.7,-275.2 
			725.8,-274.1 724.9,-260 724.8,-257.6 724.7,-256.7 726.4,-255.1 724.6,-253.9 724.5,-253.5 726.2,-251.9 724.4,-250.7 
			724.3,-250.3 726,-248.7 		"/>
		<path fill="#D4E8E7" d="M724.8-257.6c-2.7,0.5-5.4,1-8.1,1.4l0.1-2.5c2.7-0.4,5.4-0.9,8.1-1.4L724.8-257.6z"/>
		<polygon fill="#819DA5" points="719.4,-245.6 717.9,-248.2 719.5,-274.2 721.1,-274 		"/>
		<path fill="#1F3242" d="M730.8-272.2l0.2-3.5c0.2-4.1-2.9-7.8-7.1-8.4l-2.6-0.3c-4-0.5-7.5,2.1-8,6c0,0.1,0,0.3,0,0.4l-0.2,3.5
			c-0.1,2,0.6,3.9,1.8,5.4c1.3,1.6,3.2,2.7,5.3,3l2.6,0.3C726.9-265.3,730.5-268.2,730.8-272.2z M722.3-277.8
			c-2.8-0.4-2.5-4.5,0.2-4.2C725.3-281.6,725-277.4,722.3-277.8z"/>
		<path fill="none" stroke="#102333" stroke-width="2.895" stroke-miterlimit="10" d="M722.3-277.3c1.4,0.2,2.7-0.8,2.8-2.2
			c0.1-1.4-1-2.7-2.5-2.9"/>
		<path fill="none" stroke="#102333" stroke-width="1.1768" stroke-miterlimit="10" d="M715.6-268c1.2,0.9,2.8,1.6,4.5,1.8l2.6,0.3
			c1.6,0.2,3.1,0,4.4-0.5"/>
		<path fill="none" stroke="#102333" stroke-width="2.895" stroke-miterlimit="10" d="M722.6-282.4c-1.4-0.2-2.7,0.8-2.8,2.2
			c-0.1,1.4,1,2.7,2.5,2.9"/>
		<path fill="#102333" d="M720.6-275.9l0.7,3.4c0.9,4,4.9,6.8,9.1,6.2l2.6-0.4c4.2-0.6,7.8-4.6,6.9-9.5l-1.6-2.3
			c-0.9-4-4.9-6.8-9.1-6.2l-3-0.8C722-284.7,719.7-279.9,720.6-275.9z M728.4-282.8c2.7-0.4,3.5,3.1,0.7,3.4
			C726.4-279,725.7-282.4,728.4-282.8z"/>
		<polygon fill="#819DA5" points="734.3,-275.9 738,-258.9 740.3,-259.3 740,-257.8 738.6,-256.2 738.6,-255.8 740.8,-256.2 
			740.7,-254.7 739.2,-253 739.3,-252.6 741.5,-253.1 741.3,-251.5 740.3,-250.4 740.1,-248.9 736.8,-244.4 732.1,-247.8 
			727.9,-267.2 728.4,-269 		"/>
		<polygon fill="#C8D6D6" points="740.1,-251.4 740.3,-250.5 737.1,-246 732.3,-249.3 730.2,-259 729.7,-261.3 726.5,-276.3 
			734.6,-277.5 737.5,-263.7 738,-261.3 738.2,-260.4 740.2,-259.3 738.8,-257.7 738.9,-257.3 740.9,-256.2 739.5,-254.6 
			739.5,-254.2 741.6,-253.1 		"/>
		<path fill="#D4E8E7" d="M738-261.3c-2.6,0.8-5.2,1.6-7.8,2.3l-0.5-2.4c2.6-0.8,5.2-1.5,7.8-2.3L738-261.3z"/>
		<polygon fill="#819DA5" points="736,-248.3 733.9,-250.4 728.4,-275.9 730.1,-276.1 		"/>
		<path fill="#2B4454" d="M739.9-277l-0.7-3.4c-0.9-4-4.9-6.8-9.1-6.2l-2.6,0.4c-4,0.6-6.7,4.1-6.1,7.9c0,0.1,0,0.3,0.1,0.4l0.7,3.4
			c0.4,2,1.6,3.6,3.2,4.7c1.7,1.2,3.8,1.7,5.9,1.4l2.6-0.4C738-269.3,740.7-273,739.9-277z M730.8-280.4c-2.5,1.1-4.5-2.5-2-3.7
			C731.4-285.2,733.3-281.5,730.8-280.4z"/>
		<path fill="none" stroke="#102333" stroke-width="2.895" stroke-miterlimit="10" d="M730.4-279.6c1.4-0.2,2.4-1.5,2.1-2.9
			c-0.3-1.4-1.7-2.3-3.1-2.1"/>
		<path fill="none" stroke="#102333" stroke-width="1.1768" stroke-miterlimit="10" d="M726.4-268.9c1.4,0.6,3.1,0.8,4.8,0.6
			l2.6-0.4c1.6-0.2,3-0.8,4.1-1.7"/>
		<path fill="none" stroke="#DFEDED" stroke-width="3.0716" stroke-miterlimit="10" d="M727.1-281.5c3.2-0.9,5.2-5.4,5.3-8.4"/>
		<path fill="none" stroke="#102333" stroke-width="2.895" stroke-miterlimit="10" d="M729.3-284.6c-1.4,0.2-2.4,1.5-2.1,2.9
			c0.3,1.4,1.7,2.3,3.1,2.1"/>
	</g>
	<path fill="#FFB287" d="M623.7-317c0,0,18.2,6.6,39.6,7.6c12.1,0.6,23.9,3.5,34.8,8.3c2.7,1.2,5.3,2.4,7.5,3.4
		c9.7,4.4,15.9,12.7,20,5.5c4.1-7.2-10.7-17.2-23.6-21.8c-12.8-4.6-19.9-24.8-19.9-24.8L623.7-317z"/>
</g>
<g>
	<path opacity="0.1" fill="#F5F3FF" enable-background="new    " d="M232.6,347.6c-13.7-8.1-35.8-8.1-49.4-0.1
		c-13.6,8-13.5,21.1,0.2,29.2c13.7,8.1,35.8,8.1,49.4,0.1C246.4,368.8,246.3,355.7,232.6,347.6z"/>
	<path fill="#444444" d="M232,356.8c0.5,2.4,0.7,12.6-0.3,15.7c-0.9,3-4.1,7.1-7.8,6.3c-3.1-0.6-4.3-5.1-4.5-9.6
		c-0.2-4.4,2.4-12.6,2.9-15C222.2,354.1,231.4,354.4,232,356.8z"/>
	<path fill="#E1E7EF" d="M206.3,331.3l1.3,5.8l-2.3,5.9c0,0-8.7-3.7-8.1-4.6c0.6-0.9,0.9-3.6,1.1-5.9L206.3,331.3z"/>
	<path fill="#1D1D1B" d="M231.8,351.4c0.5,4.3,0.6,13.2-0.3,17.8c-1,5.4-4.7,7.6-6.6,7.6c-1.9,0-3.7-1-4.6-5.6
		c-1.4-7.7,2.5-13.4,2-15.8c-0.5-2.5,0.1-4.6,0.8-6.7C223.2,348.2,230.6,340.3,231.8,351.4z"/>
	<path fill="#E1E7EF" d="M231.3,350.2c0.2,1.3-0.1,4.1-1.2,3.9c-1-0.2-1.9-0.9-3.7-0.6c-2.1,0.4-2.5,0.1-3-0.8
		c-0.6-1.2,0.2-3.6,0.2-3.6S231,348.8,231.3,350.2z"/>
	<path fill="#3361AB" d="M231.6,211.2c5.7,18.7,2.4,44.2-0.1,78.6c3.4,28.4,1.5,56.9,1.1,58.6c-0.9,3.7-10.1,4-10.7-2
		c-0.6-4.5-3.4-36.3-5.8-58.8c-1.6-15.2-2.9-27.6-2.9-27.6s-2.8,13.8-3.6,28.7c2.3,20-1,40.5-1.9,44.6c-0.6,2.3-9.4,2.7-10.1-1
		c-0.7-3.9,0-22.4-1-44.4c-4.9-33.1-0.5-79.2-0.5-79.2S212.5,219.9,231.6,211.2z"/>
	<g>
		<path fill="#2A4B85" d="M231.9,212l0.8,3.2c-9.2,8.7-33,3.7-37-2.9c0-1.2,0.3-3.8,0.3-3.8L231.9,212z"/>
	</g>
	<path fill="#FF0000" d="M236.2,157.9c-1-3.7-10.2-11.4-10.2-11.4c-4-2.5-22.5-6.8-26.7-0.6c-8.9,11.7-1.6,42.4-3.3,62.7
		c-0.7,8.8,35.3,14.1,36.5,2.9C234.6,190.3,239.8,170.8,236.2,157.9z"/>
	<path fill="#FF0000" d="M203.3,161l-5,5c0,0-8.6,12.2-12,16c-6.2,6.9-28.7,18.9-28.7,18.9l-4.2-9.1c0,0,19.3-10.5,24.8-17.4
		c5.6-7,10-26,18.9-29.2c6.2-2.2,14.4-0.4,14.4-0.4L203.3,161z"/>
	<path fill="#FEC2BE" d="M223.4,128.8c0,0-0.6,7.8-0.8,16.3c-4.5,5.8-10.7,2.3-11.6,0.6c-0.9-1.7,0.2-8.9,0.2-8.9L223.4,128.8z"/>
	<path fill="#EDADAB" d="M211.2,137c0,0-0.2,2-0.5,5.6c8.4-3.6,10.1-9.9,10.1-9.9L211.2,137z"/>
	<path fill="#FF0000" d="M220.4,163.5l11.3,6.1c0,0,17.2,16.3,15.8,26.2c-1.1,7.6-16.3,23.4-16.3,23.4l6.9,6.1
		c0,0,20.6-20.4,21.2-29.8c0.6-9.5-5.4-26-13.8-35.2c-4.5-5-15.6-11.9-21.1-14.6L220.4,163.5z"/>
	<g>
		<path fill="#2A4B85" d="M211.9,237.2c-2.3,0-4.8-1.5-6.6-3.5c3,10.9,7.9,26.2,7.9,26.2S212.2,241.7,211.9,237.2z"/>
	</g>
	<polygon fill="#DC221D" points="187.2,181 195.7,163.5 195,170.9 	"/>
	<path fill="#444444" d="M207.3,341.6c0,0,1.7,1.1-0.3,3.6c-1.2,1.6-4.5,1.6-7,2.3c-2.5,0.7-3.8,4.4-8.1,7.3
		c-4.3,2.9-7.9,2.8-9.9,1.9c-1.7-0.8-1.8-2.4-1.6-3.8L207.3,341.6z"/>
	<path fill="#1D1D1B" d="M207.6,337.1c0,0,1,5.2-0.4,6.7s-7.2,1.9-9,3.2c-1.6,1.1-5.7,7.4-10.5,8.4c-4.8,1-7.4,0.4-7.2-2.5
		c0.2-2.9,6.9-8.1,8.6-9.4c2.4-1.7,3.4-3.2,5.8-5.8c2.3-2.5,4.1-0.9,5.9,1.9C201.8,341.1,207.6,337.1,207.6,337.1z"/>
	<path fill="#FEC2BE" d="M224.6,116.6c3,4.9-4.4,18.8-4.4,18.8s-10.4,8.2-14.6,4.9c-3.7-2.9-5.7-10.8-5.6-16
		c-1.6-4.7-0.5-12.3-0.5-12.3C200.5,103.9,221.5,111.7,224.6,116.6z"/>
	<path fill="#693A0E" d="M213,118.6c4.1,2,2.4,9.3,4.1,9.2c1.1,0,1.3-3,3-4.3c2.9-2.2,4.4,0.8,3.1,7.4c5.3-11.8,8.7-21.8,0.7-23.1
		c-3.6-7.9-14.5-7.1-20-3.4c-6.5,4.3-7.4,10.7-5.1,13.8C200.5,120.4,207.1,115.7,213,118.6z"/>
	<path fill="#FEC2BE" d="M222.7,122.7c-2.5,0-4.3,1.9-4.3,4.2c0,2.3,2.3,4.2,4.3,4.2s3.9-2.7,3.9-5.1
		C226.6,123.8,224.7,122.7,222.7,122.7z"/>
	<polygon fill="#DC221D" points="232.6,211.1 234.7,171.5 237.1,175.6 	"/>
	<path fill="#DC221D" d="M153.5,191.6c-1.3,0.6-1.5,3.2-0.3,5.7c1.1,2.6,3.1,4.1,4.4,3.5c1.3-0.6,1.5-3.2,0.3-5.7
		C156.8,192.6,154.8,191,153.5,191.6z"/>
	<path fill="#DC221D" d="M230.9,219.4c-0.7,0.9,0.3,3,2.3,4.6c2,1.6,4.2,2.2,4.9,1.3c0.7-0.9-0.3-3-2.3-4.6
		C233.9,219,231.7,218.4,230.9,219.4z"/>
	<g>
		<path fill="#2A4B85" d="M234.7,233.3v-0.4c-9.2,0-14.5-11.4-14.5-15h-0.4C219.8,221.6,225.3,233.3,234.7,233.3L234.7,233.3z"/>
	</g>
	<path fill="#FEC2BE" d="M153.8,193.8c-2,0.9-3.6,0.2-5.5-0.1c-3.5-0.5-3.4,0.2-6.2-0.3c-1.1-0.2-2.3-0.3-3.1-0.2
		c-0.8,0.1-0.9,1.3,0.2,2c2.1,1.3,5.1,1.5,7.7,1.4c-1.7,1.8-2.8,3.5-5.5,4.8c-2.5,1.2-5.5,2.4-7.3,4.3c-0.5,0.5-0.4,1.6,0.1,1.5
		c2.6-0.3,7-2.7,10.8-4.4c-4.5,3.4-9,5.2-10.4,5.9c-0.9,0.5-0.8,2-0.4,2c2.7-0.2,9.3-4.5,10.6-5c-2,2.2-5,2.8-5.9,3.8
		c-0.4,0.4-0.3,1.4,0.1,1.4c1.4-0.1,3.6-1.5,4.9-2.2c3-1.7,6.7-4.3,9-8.4c1.7-1.4,3.6-2.8,3.6-2.8S154.6,193.4,153.8,193.8z"/>
	<path fill="#FEC2BE" d="M237.9,223.1c-1.1,0.7-3.2,2.4-3.4,4.2c0.1,2-0.8,3.1-2,5.5c-1.9-0.6-5.8-2.5-7.7-5.1
		c0.5-0.5,1.8-2.9,2.8-3.8c-0.6,0.3-2.2,2.1-3.3,3.5c-1.1,1.6-3.8,1.8-3.4,0.6c0.9-1.2,2.7-4.4,3.4-4.9c0.7-0.5,2.7-1.7,3.5-1.9
		c0.8-0.2,3.2,0.3,3.2,0.3l2.4-2.4C235.3,219.6,237.3,221.8,237.9,223.1z"/>
</g>
<g>
	<path fill="none" stroke="#DFEDED" stroke-width="0.25" stroke-miterlimit="10" d="M142,200.6c-0.4,0.1-0.7,0.2-1,0.5
		c-0.8,0.7-0.8,2-0.1,2.7c0.7,0.8,2,0.8,2.7,0c0.6-0.5,0.7-1.3,0.5-2"/>
	<path fill="#102333" d="M145.2,203.8l0.7-0.1c0.8-0.1,1.3-0.8,1.3-1.6l0-0.5c-0.1-0.8-0.7-1.3-1.5-1.2l-0.7,0.1
		c-0.8,0.1-1.3,0.8-1.3,1.6l-0.2,0.6C143.5,203.4,144.4,203.9,145.2,203.8z M144,202.3c0-0.5,0.6-0.6,0.6-0.1
		C144.7,202.7,144,202.8,144,202.3z"/>
	<polygon fill="#819DA5" points="145.4,201.3 148.6,200.9 148.5,200.4 148.8,200.5 149.1,200.8 149.2,200.8 149.1,200.4 
		149.4,200.4 149.7,200.7 149.8,200.7 149.7,200.3 150,200.3 150.2,200.5 150.5,200.6 151.3,201.3 150.6,202.1 146.9,202.6 
		146.6,202.5 	"/>
	<polygon fill="#C8D6D6" points="150,200.6 150.2,200.5 151,201.2 150.3,202 148.5,202.3 148,202.4 145.2,202.8 145.1,201.3 
		147.7,200.9 148.1,200.8 148.3,200.8 148.5,200.4 148.8,200.7 148.9,200.7 149.1,200.4 149.4,200.7 149.5,200.6 149.7,200.3 	"/>
	<path fill="#D4E8E7" d="M148.1,200.8c0.2,0.5,0.4,1,0.6,1.4l-0.5,0.1c-0.2-0.5-0.4-1-0.6-1.4L148.1,200.8z"/>
	<polygon fill="#819DA5" points="150.5,201.4 150.1,201.7 145.3,202.4 145.3,202.1 	"/>
	<path fill="#1F3242" d="M145.2,200.3l-0.7,0.1c-0.8,0.1-1.3,0.8-1.3,1.6l0,0.5c0.1,0.8,0.7,1.3,1.4,1.2c0,0,0,0,0.1,0l0.7-0.1
		c0.4-0.1,0.7-0.3,0.9-0.5c0.2-0.3,0.4-0.7,0.3-1.1l0-0.5C146.7,200.7,146,200.2,145.2,200.3z M144.5,202c0,0.5-0.7,0.6-0.8,0.1
		C143.7,201.6,144.5,201.5,144.5,202z"/>
	<path fill="none" stroke="#102333" stroke-width="2.895" stroke-miterlimit="10" d="M144.6,202c0-0.3-0.2-0.5-0.5-0.4
		c-0.3,0-0.5,0.3-0.4,0.6"/>
	<path fill="none" stroke="#102333" stroke-width="1.1768" stroke-miterlimit="10" d="M146.6,202.9c0.1-0.3,0.2-0.6,0.2-0.9l0-0.5
		c0-0.3-0.1-0.6-0.3-0.8"/>
	<path fill="none" stroke="#102333" stroke-width="2.895" stroke-miterlimit="10" d="M143.7,202.1c0,0.3,0.2,0.5,0.5,0.4
		c0.3,0,0.5-0.3,0.4-0.6"/>
	<path fill="#102333" d="M145,202.3l0.6-0.3c0.7-0.3,1.1-1.1,0.8-1.9l-0.2-0.5c-0.3-0.7-1.1-1.3-2-0.9l-0.4,0.4
		c-0.7,0.3-1.1,1.1-0.8,1.9l0,0.6C143.3,202.3,144.3,202.6,145,202.3z M143.4,201.1c-0.2-0.5,0.4-0.7,0.6-0.3
		C144.2,201.3,143.6,201.6,143.4,201.1z"/>
	<polygon fill="#819DA5" points="144.4,199.8 147.4,198.5 147.3,198.1 147.6,198.1 147.9,198.3 148,198.2 147.8,197.8 148.1,197.8 
		148.4,198 148.5,198 148.4,197.6 148.6,197.6 148.9,197.7 149.2,197.7 150.1,198.1 149.7,199.1 146.3,200.6 145.9,200.6 	"/>
	<polygon fill="#C8D6D6" points="148.7,197.8 148.9,197.7 149.8,198.2 149.4,199.1 147.7,199.9 147.3,200.1 144.7,201.2 
		144.2,199.8 146.6,198.7 147,198.5 147.1,198.5 147.3,198.1 147.6,198.3 147.7,198.2 147.8,197.8 148.2,198 148.2,198 148.4,197.6 
			"/>
	<path fill="#D4E8E7" d="M147,198.5c0.2,0.4,0.5,0.9,0.7,1.3l-0.4,0.2c-0.2-0.4-0.5-0.9-0.7-1.3L147,198.5z"/>
	<polygon fill="#819DA5" points="149.4,198.4 149.1,198.9 144.7,200.8 144.6,200.5 	"/>
	<path fill="#2B4454" d="M144,198.8l-0.6,0.3c-0.7,0.3-1.1,1.1-0.8,1.9l0.2,0.5c0.3,0.7,1,1.1,1.7,0.8c0,0,0,0,0.1,0l0.6-0.3
		c0.3-0.1,0.6-0.4,0.7-0.8c0.2-0.3,0.2-0.8,0-1.1l-0.2-0.5C145.5,198.8,144.7,198.5,144,198.8z M143.8,200.6
		c0.3,0.4-0.3,0.9-0.6,0.5C142.9,200.6,143.5,200.1,143.8,200.6z"/>
	<path fill="none" stroke="#102333" stroke-width="2.895" stroke-miterlimit="10" d="M143.9,200.6c-0.1-0.3-0.4-0.4-0.6-0.3
		c-0.2,0.1-0.4,0.4-0.3,0.7"/>
	<path fill="none" stroke="#102333" stroke-width="1.1768" stroke-miterlimit="10" d="M146,200.9c0.1-0.3,0-0.6-0.1-0.9l-0.2-0.5
		c-0.1-0.3-0.3-0.5-0.5-0.7"/>
	<path fill="none" stroke="#DFEDED" stroke-width="0.25" stroke-miterlimit="10" d="M143.7,201.3c-0.3-0.6-1.2-0.8-1.7-0.7"/>
	<path fill="none" stroke="#102333" stroke-width="2.895" stroke-miterlimit="10" d="M143,201c0.1,0.3,0.4,0.4,0.6,0.3
		c0.2-0.1,0.4-0.4,0.3-0.7"/>
</g>
</svg>
