<?xml version="1.0" encoding="utf-8"?>
<!-- Generator: Adobe Illustrator 18.0.0, SVG Export Plug-In . SVG Version: 6.00 Build 0)  -->
<!DOCTYPE svg PUBLIC "-//W3C//DTD SVG 1.1//EN" "http://www.w3.org/Graphics/SVG/1.1/DTD/svg11.dtd">
<svg version="1.1" id="Livello_1" xmlns="http://www.w3.org/2000/svg" xmlns:xlink="http://www.w3.org/1999/xlink" x="0px" y="0px"
	 viewBox="0 0 165 46.1" enable-background="new 0 0 165 46.1" xml:space="preserve">
<g>
	<path fill="#FFFFFF" d="M24.8,21c0.2-0.7,0.6-1.2,1.1-1.4c0.5-0.3,1.1-0.3,1.6-0.2c0.5,0.1,0.9,0.4,1.2,0.8c0.3,0.4,0.4,1,0.1,1.7
		c-0.5,1.5-1.1,2.9-1.8,4.2c-0.7,1.3-1.4,2.4-2.3,3.3c-0.9,0.9-1.8,1.6-2.9,2.1c-1.1,0.5-2.2,0.8-3.5,0.8c-1.1,0-2.2-0.2-3.1-0.6
		c-0.9-0.4-1.7-1.1-2.3-1.9c-0.9,0.8-1.8,1.5-2.8,1.9c-1,0.4-2,0.6-3.1,0.6c-0.9,0-1.8-0.2-2.6-0.5c-0.8-0.3-1.5-0.7-2.1-1.3
		c-0.6-0.5-1.1-1.2-1.4-1.9c-0.3-0.8-0.5-1.6-0.5-2.5c0-0.8,0.2-1.7,0.5-2.5L6.4,8.4c0.3-0.8,0.7-1.6,1.2-2.2
		c0.5-0.6,1.1-1.1,1.7-1.5c0.6-0.4,1.3-0.7,2-1c0.7-0.2,1.4-0.4,2.2-0.4c0.4,0,0.8,0,1.3,0c0.5,0,1,0.1,1.5,0.3
		c0.5,0.1,1,0.4,1.4,0.6c0.5,0.3,0.8,0.6,1.1,1c0.1-0.6,0.4-1,0.8-1.4c0.4-0.4,0.8-0.6,1.3-0.8C21.4,3,21.9,3,22.4,3
		c0.5,0.1,0.9,0.3,1.3,0.6c0.3,0.3,0.6,0.7,0.7,1.3c0.1,0.5,0.1,1.2-0.1,2l-6.4,18c-0.2,0.7-0.4,1.2-0.4,1.7c0,0.4,0.1,0.8,0.4,1
		c0.3,0.2,0.6,0.4,1,0.4c1.1,0,2.2-0.6,3.2-1.9C23.2,24.8,24.1,23.1,24.8,21z M8.4,27.1c0.9,0,1.7-0.4,2.5-1.1
		c0.8-0.8,1.5-1.9,2.2-3.5l3.9-11c0-0.4,0-0.8-0.1-1.2c-0.1-0.4-0.3-0.8-0.5-1.1c-0.2-0.3-0.5-0.6-0.9-0.8c-0.3-0.2-0.7-0.3-1.2-0.3
		c-0.7,0-1.3,0.2-1.9,0.7c-0.6,0.5-1,1.1-1.3,1.9L6.6,23.6c-0.2,0.5-0.3,1-0.3,1.4c0,0.6,0.2,1.1,0.5,1.5
		C7.3,26.9,7.8,27.1,8.4,27.1z"/>
	<path fill="#FFFFFF" d="M42.5,22.4c0.2-0.7,0.6-1.1,1.1-1.3c0.5-0.2,1-0.3,1.6-0.2c0.5,0.1,0.9,0.4,1.2,0.8
		c0.3,0.4,0.4,0.9,0.2,1.5c-0.6,1.8-1.3,3.2-2,4.4c-0.7,1.2-1.5,2.1-2.3,2.8c-0.8,0.7-1.6,1.2-2.5,1.4c-0.8,0.3-1.7,0.4-2.5,0.4
		c-1,0-1.9-0.2-2.8-0.6c-0.9-0.4-1.5-1-2-1.7c-0.6,0.7-1.4,1.2-2.2,1.7c-0.8,0.4-1.8,0.7-2.8,0.7c-0.7,0-1.4-0.1-2-0.3
		c-0.6-0.2-1.1-0.5-1.6-0.9c-0.5-0.4-0.8-0.9-1.1-1.4c-0.3-0.6-0.4-1.2-0.4-1.9c0-0.6,0.1-1.2,0.3-1.8l4.1-11.6
		c0.2-0.6,0.5-1,0.9-1.3c0.4-0.3,0.8-0.5,1.2-0.6c0.4-0.1,0.8,0,1.2,0.1c0.4,0.1,0.7,0.4,1,0.7c0.3,0.3,0.5,0.7,0.6,1.1
		c0.1,0.4,0,0.9-0.2,1.5l-3.9,10.6c-0.1,0.4-0.2,0.7-0.2,0.9c0,0.6,0.3,0.8,0.8,0.8c0.3,0,0.7-0.1,1-0.3c0.4-0.2,0.7-0.4,1.1-0.7
		c0.4-0.3,0.7-0.7,1-1.1c0.3-0.4,0.6-0.8,0.8-1.3L36,14.3c0.3-0.9,0.8-1.5,1.4-1.7c0.6-0.3,1.2-0.3,1.8-0.1c0.6,0.2,1,0.6,1.4,1.1
		c0.3,0.6,0.4,1.2,0.1,2l-4,11.4c-0.1,0.2-0.1,0.3-0.1,0.5c0,0.2,0.1,0.4,0.3,0.6c0.2,0.1,0.4,0.2,0.7,0.2c0.8,0,1.6-0.5,2.5-1.4
		C41,25.9,41.8,24.5,42.5,22.4z"/>
	<path fill="#FFFFFF" d="M53.4,22.6c0.2-0.7,0.6-1.1,1.2-1.3c0.5-0.2,1.1-0.3,1.6-0.2c0.5,0.1,0.9,0.4,1.2,0.8
		c0.3,0.4,0.4,0.9,0.2,1.5c-1,2.8-2.3,4.9-4,6.4c-1.7,1.5-3.7,2.3-5.8,2.3c-0.9,0-1.7-0.1-2.5-0.4c-0.8-0.2-1.5-0.6-2.1-1.1
		c-0.6-0.5-1.1-1-1.4-1.7c-0.4-0.7-0.5-1.4-0.5-2.3c0-0.7,0.1-1.4,0.4-2.3v0c0.2-0.7,0.5-1.4,0.7-2c0.2-0.6,0.4-1.2,0.7-1.8
		c0.2-0.6,0.4-1.2,0.7-1.8c0.2-0.6,0.5-1.3,0.7-2h-1.1c-0.5,0-0.9-0.2-1.1-0.6c-0.3-0.4-0.4-0.9-0.3-1.4c0.1-0.5,0.3-1,0.7-1.4
		c0.4-0.4,1-0.6,1.9-0.6h1.4l2.6-7.1c0.3-0.9,0.7-1.4,1.3-1.7c0.6-0.3,1.2-0.3,1.8-0.2c0.6,0.1,1.1,0.5,1.4,0.9
		c0.4,0.5,0.5,1.1,0.3,1.7l-2.2,6.3h1.5c0.7,0,1.2,0.2,1.5,0.6c0.3,0.4,0.4,0.9,0.3,1.4c-0.1,0.5-0.3,1-0.8,1.4
		c-0.4,0.4-1.1,0.6-1.8,0.6h-2.2l-3.2,9c-0.1,0.2-0.1,0.5-0.1,0.7c0,0.5,0.2,0.8,0.5,1.1c0.3,0.3,0.8,0.5,1.4,0.5c1,0,2-0.4,2.9-1.3
		C51.9,25.9,52.7,24.5,53.4,22.6z"/>
	<path fill="#FFFFFF" d="M66.7,25c0.1,0,0.1,0,0.2,0c0.1,0,0.2,0,0.2,0c1,0,1.9-0.3,2.6-1c0.7-0.7,1.3-1.5,1.7-2.6
		c0.2-0.7,0.6-1.2,1.1-1.5c0.5-0.3,1.1-0.3,1.6-0.2c0.5,0.1,0.9,0.4,1.2,0.9c0.3,0.5,0.3,1.2,0,2c-0.3,0.9-0.7,1.7-1.2,2.5
		c-0.5,0.8-1.1,1.4-1.9,2c-0.7,0.6-1.5,1-2.4,1.4c-0.9,0.3-1.8,0.5-2.8,0.5c-0.7,0-1.4-0.1-2-0.3c-0.7,1.2-1.6,2.1-2.8,2.6
		c-1.1,0.5-2.3,0.8-3.7,0.8c-0.9,0-1.7-0.1-2.5-0.4c-0.8-0.3-1.5-0.6-2.1-1.1c-0.6-0.5-1.1-1.1-1.4-1.8c-0.4-0.7-0.5-1.5-0.5-2.4
		c0-0.4,0-0.8,0.1-1.2c0.1-0.4,0.2-0.8,0.3-1.2l2.7-7.5c0.3-0.7,0.7-1.4,1.1-2c0.5-0.6,1.1-1.1,1.7-1.5c0.6-0.4,1.3-0.7,2.1-0.9
		c0.8-0.2,1.5-0.3,2.3-0.3c0.9,0,1.8,0.1,2.6,0.4c0.8,0.3,1.5,0.7,2.1,1.2c0.6,0.5,1.1,1.1,1.4,1.8c0.3,0.7,0.5,1.5,0.4,2.3
		c0,0.3-0.1,0.8-0.2,1.3c-0.1,0.5-0.3,1.1-0.5,1.6c-0.2,0.6-0.4,1.1-0.6,1.6c-0.2,0.5-0.4,0.8-0.5,1c-0.2,0.3-0.4,0.6-0.7,0.7
		c0.1,0.3,0.1,0.6,0.1,0.8C66.7,25,66.7,25.1,66.7,25z M63.5,19.8c0.1-0.4,0.2-0.8,0.4-1.3c0.2-0.5,0.2-0.9,0.2-1.2
		c0-0.4-0.2-0.7-0.5-1c-0.3-0.3-0.7-0.5-1.2-0.5c-0.5,0-1,0.2-1.4,0.5c-0.4,0.3-0.7,0.7-0.9,1.3c-0.7,1.8-1.3,3.2-1.8,4.4
		c-0.4,1.2-0.8,2.2-1,2.9c-0.1,0.2-0.1,0.5-0.2,0.8C57,26.2,57,26.6,57,26.9c0,0.4,0.2,0.7,0.4,0.9c0.2,0.3,0.6,0.4,1.2,0.4
		c0.5,0,1-0.2,1.4-0.5c0.4-0.3,0.8-0.8,1-1.4c0,0,0,0,0-0.1c-0.3-0.3-0.6-0.6-0.8-0.9c-0.2-0.3-0.4-0.8-0.4-1.4c0-0.5,0.1-1,0.3-1.4
		c0.2-0.4,0.4-0.8,0.8-1.1c0.3-0.3,0.7-0.5,1.1-0.7c0.4-0.1,0.9-0.2,1.3-0.2c0-0.1,0.1-0.3,0.1-0.4C63.5,20.1,63.5,20,63.5,19.8z"/>
	<path fill="#F39200" d="M98.6,22.3c0.1-0.4,0.3-0.7,0.6-1c0.3-0.2,0.6-0.4,1-0.5c0.4-0.1,0.7-0.1,1.1,0c0.4,0.1,0.7,0.2,0.9,0.4
		c0.3,0.2,0.4,0.4,0.6,0.8c0.1,0.3,0.1,0.7,0,1.1c-0.6,1.7-1.2,3.1-2,4.2c-0.7,1.1-1.5,2.1-2.4,2.8c-0.8,0.7-1.7,1.2-2.6,1.6
		c-0.9,0.3-1.7,0.5-2.6,0.5c-0.9,0-1.7-0.2-2.5-0.5c-0.8-0.4-1.4-0.8-2-1.4c-0.7,0.6-1.4,1-2.2,1.3c-0.8,0.3-1.6,0.4-2.3,0.4
		c-0.7,0-1.4-0.1-2-0.4c-0.6-0.2-1.2-0.6-1.7-1c-0.5-0.4-0.9-1-1.1-1.6c-0.3-0.6-0.4-1.3-0.4-2c0-0.3,0-0.6,0.1-1
		c0.1-0.3,0.1-0.6,0.3-1l3.1-8.9c0.2-0.6,0.5-1.2,0.9-1.7c0.4-0.5,0.8-0.9,1.3-1.2c0.5-0.3,1-0.6,1.6-0.7c0.6-0.2,1.1-0.2,1.7-0.2
		c0.8,0,1.5,0.2,2.2,0.5c0.7,0.3,1.3,0.8,1.8,1.3l2.7-7.8c0.2-0.7,0.5-1.3,0.9-1.7c0.4-0.4,0.8-0.7,1.2-0.8c0.4-0.1,0.8-0.1,1.2,0
		c0.4,0.1,0.7,0.3,1,0.7c0.3,0.3,0.5,0.7,0.6,1.2c0.1,0.5,0,1-0.2,1.6l-6.6,19.2c-0.1,0.2-0.1,0.4-0.1,0.6c0,0.3,0.1,0.5,0.3,0.7
		c0.2,0.2,0.4,0.3,0.8,0.3c0.8,0,1.6-0.4,2.4-1.3C97,25.8,97.8,24.4,98.6,22.3z M85,26.9c0.2,0,0.4,0,0.6,0c0.2,0,0.5-0.2,0.8-0.3
		c0.3-0.2,0.6-0.5,0.8-0.8c0.3-0.4,0.6-0.9,0.8-1.5l1.2-3.5c0.3-0.8,0.4-1.5,0.4-1.9c0-0.5-0.1-0.9-0.2-1.1
		c-0.1-0.3-0.3-0.4-0.4-0.5c-0.2-0.1-0.2-0.1-0.3-0.1c0,0-0.1-0.1-0.3-0.1c-0.2,0-0.4,0-0.6,0.1c-0.2,0.1-0.5,0.3-0.8,0.6
		c-0.3,0.3-0.6,0.8-0.8,1.6l-1.8,5.2c-0.1,0.2-0.1,0.4-0.2,0.6c0,0.2-0.1,0.5,0,0.7c0,0.2,0.1,0.4,0.2,0.6
		C84.5,26.7,84.7,26.8,85,26.9z"/>
	<path fill="#F39200" d="M114.5,22.6c0.2-0.6,0.5-1,1.1-1.2c0.5-0.2,1.1-0.3,1.6-0.3c0.5,0.1,1,0.3,1.3,0.7c0.3,0.4,0.4,0.9,0.2,1.6
		c-0.6,1.6-1.3,3-2.2,4.1c-0.9,1.1-1.9,2-3,2.7c-1.1,0.7-2.3,1.2-3.5,1.5c-1.2,0.3-2.4,0.5-3.6,0.5c-1.2,0-2.4-0.2-3.4-0.5
		c-1.1-0.3-2-0.7-2.7-1.3c-0.8-0.6-1.4-1.3-1.8-2.1c-0.4-0.8-0.7-1.7-0.7-2.7c0-0.4,0-0.8,0.1-1.2c0.1-0.4,0.2-0.8,0.3-1.2l2-5.8
		c0.3-0.8,0.7-1.6,1.2-2.2c0.5-0.6,1.1-1.2,1.7-1.6c0.6-0.4,1.3-0.8,2-1c0.7-0.2,1.5-0.3,2.2-0.3c0.9,0,1.8,0.1,2.6,0.4
		c0.8,0.3,1.5,0.7,2,1.2c0.6,0.5,1,1.1,1.3,1.8c0.3,0.7,0.5,1.4,0.5,2.2c0,0.6-0.1,1.2-0.3,1.9c-0.2,0.8-0.6,1.4-1,2.1
		c-0.4,0.6-0.9,1.1-1.5,1.6c-0.6,0.4-1.2,0.8-1.9,1c-0.7,0.2-1.4,0.4-2.2,0.4c-0.7,0-1.3-0.1-1.9-0.3c-0.6-0.2-1.1-0.4-1.6-0.7
		l-0.3,0.6c-0.1,0.3-0.2,0.6-0.2,0.9c0,0.8,0.4,1.4,1.1,2c0.7,0.5,1.7,0.8,2.9,0.8c0.7,0,1.5-0.1,2.2-0.3c0.8-0.2,1.5-0.5,2.2-1
		c0.7-0.4,1.4-1,2-1.7C113.6,24.4,114.1,23.6,114.5,22.6z M107.1,16.3c-0.4,0-0.8,0.1-1.1,0.4c-0.4,0.3-0.7,0.7-0.9,1.2l-0.7,2
		c0.3,0.2,0.7,0.3,1.1,0.4c0.4,0.1,0.8,0.1,1.2,0c0.4-0.1,0.8-0.2,1.1-0.5c0.3-0.2,0.6-0.6,0.7-1c0.1-0.2,0.1-0.5,0.1-0.8
		c0-0.5-0.1-0.9-0.4-1.2C107.9,16.5,107.5,16.3,107.1,16.3z"/>
	<path fill="#F39200" d="M131.9,23c0.2-0.5,0.4-0.9,0.7-1.2c0.3-0.3,0.7-0.5,1-0.6c0.4-0.1,0.7-0.1,1.1-0.1c0.4,0.1,0.7,0.2,0.9,0.5
		c0.2,0.2,0.4,0.6,0.5,1c0.1,0.4,0,0.9-0.2,1.4c-0.1,0.4-0.3,0.6-0.4,0.9c-0.1,0.2-0.2,0.5-0.4,0.8c-0.6,1.2-1.2,2.2-1.9,3.1
		c-0.7,0.8-1.4,1.5-2.1,2c-0.7,0.5-1.4,0.8-2.2,1c-0.7,0.2-1.5,0.3-2.2,0.3c-0.3,0-0.6,0-1-0.1c-0.4,0-0.8-0.1-1.3-0.3
		c-0.4-0.1-0.9-0.4-1.3-0.6c-0.4-0.3-0.7-0.6-1-1c-0.6,0.5-1.3,1-2,1.3c-0.8,0.3-1.5,0.5-2.3,0.5c-0.7,0-1.4-0.1-2.1-0.4
		c-0.6-0.3-1.2-0.6-1.7-1.1c-0.5-0.5-0.8-1-1.1-1.6c-0.3-0.6-0.4-1.3-0.4-2c0-0.3,0-0.6,0.1-0.9c0.1-0.3,0.1-0.6,0.3-0.9l3.2-8.9
		c0.5-1.3,1.3-2.2,2.3-2.9c1-0.6,2.1-0.9,3.3-0.9c0.9,0,1.7,0.1,2.4,0.4c0.7,0.2,1.1,0.5,1.5,0.7c0.4-0.5,0.9-0.8,1.6-1
		c0.6-0.1,1.2-0.1,1.8,0.1c0.5,0.2,1,0.6,1.2,1.1c0.3,0.5,0.3,1.2,0,2.1l-3.8,10.8c-0.1,0.4-0.2,0.7-0.2,1c0,0.6,0.3,0.8,0.9,0.8
		c0.8,0,1.6-0.4,2.4-1.2C130.4,26.1,131.1,24.8,131.9,23z M119,26.9c0.2,0,0.4,0,0.6,0c0.2,0,0.5-0.2,0.8-0.3
		c0.3-0.2,0.6-0.5,0.8-0.8c0.3-0.4,0.6-0.9,0.8-1.5l1.2-3.5c0.3-0.8,0.4-1.5,0.4-1.9c0-0.5-0.1-0.9-0.2-1.1
		c-0.1-0.3-0.3-0.4-0.4-0.5c-0.2-0.1-0.2-0.1-0.3-0.1c0,0-0.1-0.1-0.3-0.1c-0.2,0-0.4,0-0.6,0.1c-0.2,0.1-0.5,0.3-0.8,0.6
		c-0.3,0.3-0.6,0.8-0.8,1.6l-1.8,5.2c-0.1,0.2-0.1,0.4-0.2,0.6c0,0.2-0.1,0.5,0,0.7c0,0.2,0.1,0.4,0.2,0.6
		C118.6,26.7,118.8,26.8,119,26.9z"/>
	<path fill="#F39200" d="M135.6,26.6c0,0.1-0.1,0.2-0.1,0.3c0,0.1,0,0.2,0,0.3c0,0.2,0.1,0.5,0.3,0.6c0.2,0.2,0.4,0.3,0.8,0.3
		c0.8,0,1.6-0.4,2.5-1.3c0.9-0.9,1.7-2.4,2.5-4.4c0.3-0.8,0.7-1.3,1.2-1.5c0.5-0.2,1.1-0.3,1.6-0.2c0.5,0.1,0.9,0.4,1.2,0.9
		c0.3,0.4,0.3,1,0.1,1.6c-0.6,1.8-1.3,3.2-2,4.4c-0.8,1.2-1.6,2.1-2.4,2.8c-0.8,0.7-1.7,1.2-2.6,1.4c-0.9,0.3-1.7,0.4-2.5,0.4
		c-0.7,0-1.4-0.1-2.1-0.3c-0.7-0.2-1.3-0.5-1.8-0.9c-0.5-0.4-0.9-0.9-1.2-1.5c-0.3-0.6-0.4-1.3-0.4-2.1c0-0.7,0.1-1.4,0.4-2.2
		l6.6-19.2c0.2-0.6,0.5-1.1,0.9-1.4c0.4-0.3,0.8-0.6,1.2-0.7c0.4-0.1,0.9-0.1,1.3-0.1c0.4,0.1,0.8,0.3,1.1,0.6
		c0.3,0.3,0.5,0.6,0.6,1.1c0.1,0.4,0,1-0.2,1.6L135.6,26.6z"/>
	<path fill="#F39200" d="M18.6,44.9c-0.3-0.5-0.4-1-0.3-1.6c0.1-0.6,0.4-1,0.9-1.3c1.7-1.1,3.8-2,6.3-2.6c2.5-0.7,5.2-1.2,8.2-1.7
		c3-0.4,6.2-0.8,9.5-1c3.3-0.2,6.7-0.4,10.1-0.5c3.4-0.1,6.7-0.1,10.1-0.2c3.3,0,6.4,0,9.3,0c2.9,0,5.5,0.1,7.7,0.1
		c2.3,0,4.1,0.1,5.4,0.1l49.3,0.1c2,0,4.1,0,6.2,0c2.1,0,4.1-0.1,6-0.2c1.9-0.1,3.7-0.4,5.3-0.7c1.6-0.3,3-0.8,4.1-1.4
		c1.1-0.6,1.9-1.5,2.4-2.5c0.5-1,0.6-2.3,0.3-3.8l-0.1-0.3l0,0.1c-0.7,0.9-1.4,1.6-2.2,2.2c-0.8,0.6-1.6,1.1-2.5,1.5
		c-0.9,0.4-1.8,0.7-2.7,0.8c-0.9,0.2-1.8,0.3-2.7,0.3c-1.2,0-2.4-0.2-3.4-0.5c-1.1-0.3-2-0.7-2.7-1.3c-0.8-0.6-1.4-1.3-1.8-2.1
		c-0.4-0.8-0.7-1.7-0.7-2.7c0-0.4,0-0.8,0.1-1.2c0.1-0.4,0.2-0.8,0.3-1.2l2-5.8c0.3-0.8,0.7-1.6,1.2-2.2c0.5-0.6,1.1-1.2,1.7-1.6
		c0.6-0.4,1.3-0.8,2-1c0.7-0.2,1.5-0.3,2.2-0.3c0.9,0,1.8,0.1,2.6,0.4c0.8,0.3,1.5,0.7,2,1.2c0.6,0.5,1,1.1,1.3,1.8
		c0.3,0.7,0.5,1.4,0.5,2.2c0,0.6-0.1,1.2-0.3,1.9c-0.2,0.8-0.6,1.4-1,2.1c-0.4,0.6-0.9,1.1-1.5,1.6c-0.6,0.4-1.2,0.8-1.9,1
		c-0.7,0.2-1.4,0.4-2.2,0.4c-0.7,0-1.3-0.1-1.9-0.3c-0.6-0.2-1.1-0.4-1.6-0.7l-0.3,0.6c-0.1,0.3-0.2,0.6-0.2,0.9
		c0,0.8,0.4,1.4,1.1,2c0.7,0.5,1.7,0.8,2.9,0.8c0.7,0,1.4-0.1,2.2-0.3c0.8-0.2,1.5-0.5,2.2-1c0.7-0.4,1.4-1,2-1.7
		c0.6-0.7,1.1-1.5,1.5-2.4c0-0.5,0.2-0.9,0.6-1.3c0.3-0.3,0.6-0.5,1-0.6c0.4-0.1,0.7-0.1,1.1,0c0.4,0.1,0.7,0.2,1,0.5
		c0.3,0.2,0.5,0.5,0.7,0.8c0.2,0.3,0.4,0.7,0.7,1.2c0.3,0.5,0.6,1.1,0.8,1.7c0.3,0.7,0.5,1.4,0.6,2.2c0.2,0.8,0.2,1.6,0.1,2.4
		c-0.2,2.4-1,4.3-2.2,5.7c-1.2,1.4-2.9,2.5-5.2,3.3c-2.3,0.8-5.2,1.3-8.6,1.6c-3.5,0.3-7.6,0.4-12.4,0.4l-49.7-0.1
		c-1.4,0-3.2,0-5.5-0.1c-2.3,0-4.9-0.1-7.7-0.1c-2.9,0-5.9,0-9.2,0c-3.3,0-6.6,0.1-10,0.2c-3.4,0.1-6.7,0.3-10,0.5
		c-3.3,0.2-6.3,0.5-9.2,1c-2.9,0.4-5.5,0.9-7.7,1.6c-2.2,0.6-3.9,1.3-5.2,2.1c-0.5,0.3-1,0.4-1.6,0.3C19.4,45.7,18.9,45.4,18.6,44.9
		z M150.1,16.3c-0.4,0-0.8,0.1-1.1,0.4c-0.4,0.3-0.7,0.7-0.9,1.2l-0.7,2c0.3,0.2,0.7,0.3,1.1,0.4c0.4,0.1,0.8,0.1,1.2,0
		c0.4-0.1,0.8-0.2,1.1-0.5c0.3-0.2,0.6-0.6,0.7-1c0.1-0.2,0.1-0.5,0.1-0.8c0-0.5-0.1-0.9-0.4-1.2C150.9,16.5,150.5,16.3,150.1,16.3z
		"/>
	<path fill="#F39200" d="M83.2,20.8c-0.5-0.1-1,0-1.6,0.2c-0.5,0.2-0.9,0.7-1.1,1.3c-0.4,1.1-0.8,2-1.2,2.7
		c-0.4,0.7-0.8,1.3-1.2,1.8c-0.4,0.4-0.8,0.8-1.2,1c-0.4,0.2-0.7,0.3-1.1,0.3c-0.4,0-0.7-0.1-0.9-0.3c-0.2-0.2-0.4-0.5-0.4-0.8
		c0-0.2,0-0.3,0.1-0.5l3.7-10.6c0.1-0.2,0.1-0.4,0.1-0.6c-0.3,0-0.6,0-0.9,0c-1.4,0-2.7-0.4-3.9-1c-0.1,0.1-0.1,0.2-0.1,0.4
		c-0.3,0.8-0.6,1.6-0.9,2.5c-0.3,0.9-0.6,1.8-0.9,2.7c-0.3,0.9-0.6,1.8-0.9,2.6c-0.3,0.9-0.6,1.7-0.9,2.5c-0.1,0.3-0.2,0.7-0.3,1.1
		c-0.1,0.4-0.1,0.8-0.1,1c0,0.8,0.2,1.5,0.5,2.1c0.3,0.6,0.7,1.1,1.2,1.6c0.5,0.4,1.1,0.8,1.8,1c0.7,0.2,1.4,0.3,2.2,0.3
		c0.8,0,1.7-0.1,2.5-0.4c0.8-0.3,1.7-0.8,2.5-1.5c0.8-0.7,1.6-1.6,2.3-2.8c0.7-1.1,1.4-2.6,2-4.3c0.2-0.6,0.1-1.1-0.2-1.5
		C84.1,21.2,83.7,20.9,83.2,20.8z"/>
	<g>
		<path fill="#F39200" d="M77.1,0.2c0.3,0,0.5,0,0.8,0c0.1,0,0.2,0,0.3,0C79.7,0.4,81,1,82.1,1.9c1.8,1.6,2.6,3.6,2.3,6
			c-0.2,1.5-0.8,2.8-1.9,3.9c-1.5,1.6-3.4,2.2-5.6,2c-1.2-0.1-2.4-0.6-3.4-1.3c-1.4-1.1-2.3-2.5-2.7-4.3c0-0.3-0.1-0.5-0.1-0.8
			c0-0.3,0-0.5,0-0.8c0-0.1,0-0.2,0-0.3c0.2-1.5,0.7-2.8,1.7-3.9c1.1-1.2,2.4-1.9,3.9-2.2C76.6,0.3,76.9,0.3,77.1,0.2z M77.5,2.6
			c-2.5,0-4.5,2-4.5,4.5c0,2.5,2,4.5,4.5,4.5c2.5,0,4.5-2,4.5-4.5C82.1,4.6,80,2.5,77.5,2.6z"/>
		<path fill="#F39200" d="M81.2,5.3c-0.7,0.2-1.5,0.3-2.3,0.3c-0.1,0-0.2,0-0.2-0.2c-0.3-0.7-0.4-1.5-0.5-2.3
			C79.2,3,80.8,4.2,81.2,5.3z M80.4,5.1c-0.4-0.6-1-1.1-1.8-1.3c0,0.1,0,0.2,0,0.3c0,0.1,0.1,0.2,0.2,0.2c0.4,0.2,0.7,0.4,0.9,0.7
			C80,5.1,80.1,5.2,80.4,5.1C80.4,5.1,80.4,5.1,80.4,5.1z"/>
		<path fill="#F39200" d="M76.9,3.1c0,0.2,0,0.5-0.1,0.7c-0.1,0.6-0.2,1.1-0.4,1.6c0,0.1-0.1,0.1-0.1,0.1c-0.8,0.1-1.6,0-2.4-0.3
			C74.2,4.3,75.9,3,76.9,3.1z M74.7,5c0.1,0,0.3,0,0.4,0.1c0,0,0.1,0,0.1,0c0.3-0.4,0.7-0.7,1.2-0.8c0,0,0.1,0,0.1-0.1
			c0-0.1,0-0.3,0.1-0.4C75.7,4,75.2,4.4,74.7,5z"/>
		<path fill="#F39200" d="M81.6,6.6c0.3,0.8-0.3,2.7-1.2,3.4c-0.3-0.4-0.6-0.9-0.8-1.4c-0.1-0.2-0.1-0.4-0.2-0.6c0,0,0-0.1,0-0.1
			C80.1,7.2,80.8,6.9,81.6,6.6C81.6,6.6,81.6,6.6,81.6,6.6z M81.1,7.2c-0.1,0.1-0.3,0.1-0.4,0.2c0,0,0,0.1-0.1,0.1
			c-0.1,0.5-0.2,0.9-0.5,1.3c0,0,0,0.1,0,0.1c0.1,0.1,0.1,0.2,0.2,0.4C80.8,8.6,81,7.9,81.1,7.2z"/>
		<path fill="#F39200" d="M73.5,6.5c0.8,0.3,1.4,0.6,2,1.1c0,0,0,0.1,0,0.1c-0.2,0.8-0.5,1.5-1,2.2C73.7,8.9,73.4,7.8,73.5,6.5z
			 M74.7,9.1c0.1-0.1,0.1-0.2,0.2-0.3c0,0,0-0.1,0-0.1c-0.2-0.4-0.4-0.8-0.4-1.2c0,0,0-0.1-0.1-0.1c-0.1-0.1-0.2-0.1-0.4-0.2
			C74,7.8,74.2,8.5,74.7,9.1z"/>
		<path fill="#F39200" d="M75.7,10.7c0.5-0.6,1-1.1,1.7-1.5c0,0,0.1,0,0.2,0c0.5,0.3,0.9,0.7,1.3,1.1c0.1,0.1,0.3,0.3,0.4,0.5
			C78.1,11.3,76.9,11.3,75.7,10.7z M78.5,10.5c-0.1-0.1-0.2-0.2-0.3-0.3c0,0-0.1,0-0.1,0c-0.4,0.1-0.8,0.1-1.2,0c0,0-0.1,0-0.1,0
			c-0.1,0.1-0.2,0.2-0.3,0.3C77.2,10.6,77.8,10.6,78.5,10.5z"/>
		<path fill="#F39200" d="M77.6,6.5c0.3,0,0.6,0.3,0.6,0.6c0,0.3-0.3,0.6-0.6,0.6c-0.3,0-0.6-0.3-0.6-0.6
			C76.9,6.7,77.2,6.4,77.6,6.5z"/>
		<path fill="#F39200" d="M79,6.4c0,0.1-0.1,0.2-0.2,0.2c-0.1,0-0.2-0.1-0.2-0.2c0-0.1,0.1-0.2,0.2-0.2C78.9,6.1,79,6.2,79,6.4z"/>
		<path fill="#F39200" d="M76.6,7.8c0,0.1-0.1,0.2-0.2,0.2c-0.1,0-0.2-0.1-0.2-0.2c0-0.1,0.1-0.2,0.2-0.2
			C76.5,7.5,76.6,7.6,76.6,7.8z"/>
		<path fill="#F39200" d="M77.5,8.2c0.1,0,0.2,0.1,0.2,0.2c0,0.1-0.1,0.2-0.2,0.2c-0.1,0-0.2-0.1-0.2-0.2
			C77.3,8.3,77.4,8.2,77.5,8.2z"/>
		<path fill="#F39200" d="M77.8,5.7c0,0.1-0.1,0.2-0.2,0.2c-0.1,0-0.2-0.1-0.2-0.2c0-0.1,0.1-0.2,0.2-0.2
			C77.7,5.4,77.8,5.6,77.8,5.7z"/>
		<path fill="#F39200" d="M78.7,7.5c0.1,0,0.2,0.1,0.2,0.2C79,7.9,78.9,8,78.8,8c-0.1,0-0.2-0.1-0.2-0.2C78.5,7.6,78.6,7.5,78.7,7.5
			z"/>
		<path fill="#F39200" d="M76.3,6.1c0.1,0,0.2,0.1,0.2,0.2c0,0.1-0.1,0.2-0.2,0.2c-0.1,0-0.2-0.1-0.2-0.2
			C76.1,6.2,76.2,6.1,76.3,6.1z"/>
	</g>
</g>
</svg>
